<mxfile host="Electron" agent="Mozilla/5.0 (Windows NT 10.0; Win64; x64) AppleWebKit/537.36 (KHTML, like Gecko) draw.io/28.0.6 Chrome/138.0.7204.100 Electron/37.2.3 Safari/537.36" version="28.0.6" pages="4">
  <diagram name="Page-1" id="khLt4h_x_b4YZP1_3yRz">
    <mxGraphModel dx="1042" dy="626" grid="1" gridSize="10" guides="1" tooltips="1" connect="1" arrows="1" fold="1" page="1" pageScale="1" pageWidth="850" pageHeight="1100" math="0" shadow="0">
      <root>
        <mxCell id="0" />
        <mxCell id="1" parent="0" />
        <mxCell id="xlJZt9iA8LchDP0orwvZ-1" value="" style="whiteSpace=wrap;html=1;aspect=fixed;gradientColor=none;fillColor=none;" vertex="1" parent="1">
          <mxGeometry x="190" y="90" width="460" height="460" as="geometry" />
        </mxCell>
        <mxCell id="xlJZt9iA8LchDP0orwvZ-6" value="OP" style="rounded=0;whiteSpace=wrap;html=1;fillColor=none;movable=1;resizable=1;rotatable=1;deletable=1;editable=1;locked=0;connectable=1;" vertex="1" parent="1">
          <mxGeometry x="20" y="80" width="120" height="450" as="geometry" />
        </mxCell>
        <mxCell id="xlJZt9iA8LchDP0orwvZ-9" value="" style="rounded=0;whiteSpace=wrap;html=1;fillColor=none;" vertex="1" parent="1">
          <mxGeometry x="680" y="90" width="120" height="460" as="geometry" />
        </mxCell>
        <mxCell id="xlJZt9iA8LchDP0orwvZ-10" value="data warehouse" style="rounded=1;whiteSpace=wrap;html=1;" vertex="1" parent="1">
          <mxGeometry x="340" y="70" width="190" height="40" as="geometry" />
        </mxCell>
        <mxCell id="xlJZt9iA8LchDP0orwvZ-11" value="consumer" style="rounded=1;whiteSpace=wrap;html=1;" vertex="1" parent="1">
          <mxGeometry x="680" y="75" width="120" height="30" as="geometry" />
        </mxCell>
        <mxCell id="xlJZt9iA8LchDP0orwvZ-16" value="source" style="rounded=1;whiteSpace=wrap;html=1;" vertex="1" parent="1">
          <mxGeometry x="20" y="80" width="120" height="30" as="geometry" />
        </mxCell>
        <mxCell id="xlJZt9iA8LchDP0orwvZ-17" value="" style="image;aspect=fixed;html=1;points=[];align=center;fontSize=12;image=img/lib/azure2/general/Folder_Blank.svg;" vertex="1" parent="1">
          <mxGeometry x="61.51999999999998" y="200" width="36.96" height="30" as="geometry" />
        </mxCell>
        <mxCell id="xlJZt9iA8LchDP0orwvZ-18" value="CRM&amp;nbsp; &amp;nbsp;" style="verticalLabelPosition=bottom;html=1;verticalAlign=top;align=center;strokeColor=none;fillColor=#00BEF2;shape=mxgraph.azure.cloud_services_configuration_file;pointerEvents=1;" vertex="1" parent="1">
          <mxGeometry x="80" y="220" width="20" height="20" as="geometry" />
        </mxCell>
        <mxCell id="xlJZt9iA8LchDP0orwvZ-21" value="" style="image;aspect=fixed;html=1;points=[];align=center;fontSize=12;image=img/lib/azure2/general/Folder_Blank.svg;" vertex="1" parent="1">
          <mxGeometry x="61.51999999999998" y="310" width="36.96" height="30" as="geometry" />
        </mxCell>
        <mxCell id="xlJZt9iA8LchDP0orwvZ-22" value="ERP&amp;nbsp; &amp;nbsp;" style="verticalLabelPosition=bottom;html=1;verticalAlign=top;align=center;strokeColor=none;fillColor=#00BEF2;shape=mxgraph.azure.cloud_services_configuration_file;pointerEvents=1;" vertex="1" parent="1">
          <mxGeometry x="80" y="330" width="20" height="20" as="geometry" />
        </mxCell>
        <mxCell id="xlJZt9iA8LchDP0orwvZ-23" value="" style="rounded=0;whiteSpace=wrap;html=1;fillColor=#ffe6cc;strokeColor=#B68200;sketch=1;curveFitting=1;jiggle=2;" vertex="1" parent="1">
          <mxGeometry x="210" y="140" width="120" height="370" as="geometry" />
        </mxCell>
        <mxCell id="xlJZt9iA8LchDP0orwvZ-26" value="" style="rounded=0;whiteSpace=wrap;html=1;fillColor=#f5f5f5;fontColor=#333333;strokeColor=#666666;sketch=1;curveFitting=1;jiggle=2;" vertex="1" parent="1">
          <mxGeometry x="360" y="140" width="120" height="410" as="geometry" />
        </mxCell>
        <mxCell id="xlJZt9iA8LchDP0orwvZ-27" value="" style="rounded=0;whiteSpace=wrap;html=1;fillColor=#ffe6cc;strokeColor=#E7CE56;glass=0;sketch=1;curveFitting=1;jiggle=2;" vertex="1" parent="1">
          <mxGeometry x="510" y="140" width="120" height="400" as="geometry" />
        </mxCell>
        <mxCell id="xlJZt9iA8LchDP0orwvZ-28" value="BRONZ LAYER" style="rounded=1;whiteSpace=wrap;html=1;" vertex="1" parent="1">
          <mxGeometry x="210" y="120" width="120" height="30" as="geometry" />
        </mxCell>
        <mxCell id="xlJZt9iA8LchDP0orwvZ-29" value="SILVER LAYER" style="rounded=1;whiteSpace=wrap;html=1;" vertex="1" parent="1">
          <mxGeometry x="360" y="120" width="120" height="30" as="geometry" />
        </mxCell>
        <mxCell id="xlJZt9iA8LchDP0orwvZ-30" value="GOLD LAYER" style="rounded=1;whiteSpace=wrap;html=1;" vertex="1" parent="1">
          <mxGeometry x="510" y="120" width="120" height="30" as="geometry" />
        </mxCell>
        <mxCell id="xlJZt9iA8LchDP0orwvZ-32" value="" style="shape=link;html=1;rounded=0;" edge="1" parent="1">
          <mxGeometry width="100" relative="1" as="geometry">
            <mxPoint x="30" y="400" as="sourcePoint" />
            <mxPoint x="130" y="400" as="targetPoint" />
          </mxGeometry>
        </mxCell>
        <mxCell id="xlJZt9iA8LchDP0orwvZ-33" value="OBJECT TYPE: CSV folder" style="text;html=1;align=center;verticalAlign=middle;whiteSpace=wrap;rounded=0;" vertex="1" parent="1">
          <mxGeometry x="30" y="440" width="100" height="10" as="geometry" />
        </mxCell>
        <mxCell id="xlJZt9iA8LchDP0orwvZ-34" value="interface: file in folder&lt;div&gt;&lt;br&gt;&lt;/div&gt;" style="text;html=1;align=center;verticalAlign=middle;whiteSpace=wrap;rounded=0;" vertex="1" parent="1">
          <mxGeometry x="30" y="490" width="100" height="10" as="geometry" />
        </mxCell>
        <mxCell id="xlJZt9iA8LchDP0orwvZ-37" value="" style="shape=cylinder3;whiteSpace=wrap;html=1;boundedLbl=1;backgroundOutline=1;size=15;strokeColor=#E7CE56;shadow=1;fillColor=none;sketch=1;curveFitting=1;jiggle=2;" vertex="1" parent="1">
          <mxGeometry x="540" y="210" width="60" height="80" as="geometry" />
        </mxCell>
        <mxCell id="xlJZt9iA8LchDP0orwvZ-38" value="" style="shape=cylinder3;whiteSpace=wrap;html=1;boundedLbl=1;backgroundOutline=1;size=15;strokeColor=#666666;shadow=1;fillColor=none;sketch=1;curveFitting=1;jiggle=2;" vertex="1" parent="1">
          <mxGeometry x="390" y="210" width="60" height="80" as="geometry" />
        </mxCell>
        <mxCell id="xlJZt9iA8LchDP0orwvZ-39" value="" style="shape=cylinder3;whiteSpace=wrap;html=1;boundedLbl=1;backgroundOutline=1;size=15;strokeColor=#B68200;shadow=1;fillColor=none;sketch=1;curveFitting=1;jiggle=2;" vertex="1" parent="1">
          <mxGeometry x="240" y="210" width="60" height="80" as="geometry" />
        </mxCell>
        <mxCell id="xlJZt9iA8LchDP0orwvZ-46" value="" style="shape=singleArrow;whiteSpace=wrap;html=1;fillColor=#dae8fc;strokeColor=#6c8ebf;" vertex="1" parent="1">
          <mxGeometry x="130" y="220" width="80" height="50" as="geometry" />
        </mxCell>
        <mxCell id="xlJZt9iA8LchDP0orwvZ-47" value="" style="shape=singleArrow;whiteSpace=wrap;html=1;fillColor=#dae8fc;strokeColor=#6c8ebf;" vertex="1" parent="1">
          <mxGeometry x="460" y="220" width="80" height="50" as="geometry" />
        </mxCell>
        <mxCell id="xlJZt9iA8LchDP0orwvZ-48" value="" style="shape=singleArrow;whiteSpace=wrap;html=1;fillColor=#dae8fc;strokeColor=#6c8ebf;" vertex="1" parent="1">
          <mxGeometry x="310" y="225" width="80" height="50" as="geometry" />
        </mxCell>
        <mxCell id="xlJZt9iA8LchDP0orwvZ-49" value="raw data" style="text;html=1;align=center;verticalAlign=middle;whiteSpace=wrap;rounded=0;" vertex="1" parent="1">
          <mxGeometry x="240" y="300" width="60" height="30" as="geometry" />
        </mxCell>
        <mxCell id="xlJZt9iA8LchDP0orwvZ-50" value="cleaned, standerd data" style="text;html=1;align=center;verticalAlign=middle;whiteSpace=wrap;rounded=0;" vertex="1" parent="1">
          <mxGeometry x="380" y="300" width="80" height="30" as="geometry" />
        </mxCell>
        <mxCell id="xlJZt9iA8LchDP0orwvZ-51" value="business ready data" style="text;html=1;align=center;verticalAlign=middle;whiteSpace=wrap;rounded=0;" vertex="1" parent="1">
          <mxGeometry x="530" y="300" width="70" height="30" as="geometry" />
        </mxCell>
        <mxCell id="xlJZt9iA8LchDP0orwvZ-52" value="&lt;h1 style=&quot;margin-top: 0px;&quot;&gt;object type:&lt;/h1&gt;&lt;h1 style=&quot;margin-top: 0px;&quot;&gt;table&lt;/h1&gt;&lt;p&gt;&lt;b&gt;load:&lt;/b&gt;&lt;/p&gt;&lt;p&gt;&lt;b&gt;&amp;nbsp; &amp;nbsp; &amp;nbsp;*batch programing&lt;/b&gt;&lt;/p&gt;&lt;p&gt;&lt;b&gt;&amp;nbsp; &amp;nbsp; &amp;nbsp;*full load&lt;/b&gt;&lt;/p&gt;&lt;p&gt;&lt;b&gt;&amp;nbsp; &amp;nbsp; &amp;nbsp;*truncate &amp;amp; insert&lt;/b&gt;&lt;/p&gt;&lt;p&gt;&lt;i&gt;no &lt;/i&gt;&lt;b&gt;transformation&lt;/b&gt;&lt;/p&gt;&lt;p&gt;&lt;b&gt;data model:&lt;/b&gt;&amp;nbsp;none&lt;/p&gt;&lt;p&gt;&lt;br&gt;&lt;/p&gt;" style="text;html=1;whiteSpace=wrap;overflow=hidden;rounded=0;fontSize=8;" vertex="1" parent="1">
          <mxGeometry x="220" y="330" width="260" height="180" as="geometry" />
        </mxCell>
        <UserObject label="&lt;b&gt;Object type: &lt;/b&gt;table&lt;div&gt;&lt;br&gt;&lt;/div&gt;" placeholders="1" name="Variable" id="xlJZt9iA8LchDP0orwvZ-55">
          <mxCell style="text;html=1;strokeColor=none;fillColor=none;align=center;verticalAlign=middle;whiteSpace=wrap;overflow=hidden;" vertex="1" parent="1">
            <mxGeometry x="360" y="330" width="120" height="20" as="geometry" />
          </mxCell>
        </UserObject>
        <UserObject label="&lt;b&gt;Load:&lt;/b&gt;" placeholders="1" name="Variable" id="xlJZt9iA8LchDP0orwvZ-59">
          <mxCell style="text;html=1;strokeColor=none;fillColor=none;align=left;verticalAlign=middle;whiteSpace=wrap;overflow=hidden;" vertex="1" parent="1">
            <mxGeometry x="370" y="360" width="80" height="20" as="geometry" />
          </mxCell>
        </UserObject>
        <UserObject label="&lt;b&gt;*batch programing&lt;/b&gt;" placeholders="1" name="Variable" id="xlJZt9iA8LchDP0orwvZ-61">
          <mxCell style="text;html=1;strokeColor=none;fillColor=none;align=center;verticalAlign=middle;whiteSpace=wrap;overflow=hidden;" vertex="1" parent="1">
            <mxGeometry x="360" y="380" width="120" height="20" as="geometry" />
          </mxCell>
        </UserObject>
        <UserObject label="&lt;b&gt;*&lt;/b&gt;full load" placeholders="1" name="Variable" id="xlJZt9iA8LchDP0orwvZ-63">
          <mxCell style="text;html=1;strokeColor=none;fillColor=none;align=center;verticalAlign=middle;whiteSpace=wrap;overflow=hidden;" vertex="1" parent="1">
            <mxGeometry x="350" y="400" width="120" height="20" as="geometry" />
          </mxCell>
        </UserObject>
        <UserObject label="&lt;b&gt;*&lt;/b&gt;truncate &amp;amp; insert" placeholders="1" name="Variable" id="xlJZt9iA8LchDP0orwvZ-64">
          <mxCell style="text;html=1;strokeColor=none;fillColor=none;align=center;verticalAlign=middle;whiteSpace=wrap;overflow=hidden;" vertex="1" parent="1">
            <mxGeometry x="370" y="420" width="120" height="20" as="geometry" />
          </mxCell>
        </UserObject>
        <UserObject label="&lt;b&gt;transformation:&lt;/b&gt;&lt;div style=&quot;text-align: center;&quot;&gt;&lt;b&gt;*&lt;/b&gt;data clean&lt;/div&gt;&lt;div style=&quot;text-align: center;&quot;&gt;*data standrization&lt;/div&gt;&lt;div style=&quot;text-align: center;&quot;&gt;*data normalization&lt;/div&gt;&lt;div style=&quot;text-align: center;&quot;&gt;*derived columns&lt;/div&gt;&lt;div style=&quot;text-align: center;&quot;&gt;*data enrichment&lt;/div&gt;" placeholders="1" name="Variable" id="xlJZt9iA8LchDP0orwvZ-65">
          <mxCell style="text;html=1;strokeColor=none;fillColor=none;align=left;verticalAlign=middle;whiteSpace=wrap;overflow=hidden;" vertex="1" parent="1">
            <mxGeometry x="365" y="430" width="120" height="100" as="geometry" />
          </mxCell>
        </UserObject>
        <UserObject label="&lt;b&gt;Data Model:None&lt;/b&gt;" placeholders="1" name="Variable" id="xlJZt9iA8LchDP0orwvZ-67">
          <mxCell style="text;html=1;strokeColor=none;fillColor=none;align=center;verticalAlign=middle;whiteSpace=wrap;overflow=hidden;" vertex="1" parent="1">
            <mxGeometry x="360" y="520" width="120" height="20" as="geometry" />
          </mxCell>
        </UserObject>
        <UserObject label="&lt;b&gt;Object type: &lt;/b&gt;views&lt;div&gt;&lt;br&gt;&lt;/div&gt;" placeholders="1" name="Variable" id="xlJZt9iA8LchDP0orwvZ-68">
          <mxCell style="text;html=1;strokeColor=none;fillColor=none;align=center;verticalAlign=middle;whiteSpace=wrap;overflow=hidden;" vertex="1" parent="1">
            <mxGeometry x="510" y="335" width="120" height="20" as="geometry" />
          </mxCell>
        </UserObject>
        <UserObject label="&lt;b&gt;no load&lt;/b&gt;" placeholders="1" name="Variable" id="xlJZt9iA8LchDP0orwvZ-70">
          <mxCell style="text;html=1;strokeColor=none;fillColor=none;align=left;verticalAlign=middle;whiteSpace=wrap;overflow=hidden;" vertex="1" parent="1">
            <mxGeometry x="520" y="360" width="80" height="20" as="geometry" />
          </mxCell>
        </UserObject>
        <mxCell id="xlJZt9iA8LchDP0orwvZ-72" value="&lt;b style=&quot;forced-color-adjust: none; color: rgb(0, 0, 0); font-family: Helvetica; font-size: 12px; font-style: normal; font-variant-ligatures: normal; font-variant-caps: normal; letter-spacing: normal; orphans: 2; text-align: left; text-indent: 0px; text-transform: none; widows: 2; word-spacing: 0px; -webkit-text-stroke-width: 0px; white-space: normal; background-color: rgb(236, 236, 236); text-decoration-thickness: initial; text-decoration-style: initial; text-decoration-color: initial;&quot;&gt;transformation:&lt;/b&gt;&lt;div style=&quot;forced-color-adjust: none; color: rgb(0, 0, 0); font-family: Helvetica; font-size: 12px; font-style: normal; font-variant-ligatures: normal; font-variant-caps: normal; letter-spacing: normal; orphans: 2; text-indent: 0px; text-transform: none; widows: 2; word-spacing: 0px; -webkit-text-stroke-width: 0px; white-space: normal; background-color: rgb(236, 236, 236); text-decoration-thickness: initial; text-decoration-style: initial; text-decoration-color: initial; text-align: center;&quot;&gt;&lt;b style=&quot;font-weight: 400; forced-color-adjust: none;&quot;&gt;*&lt;/b&gt;&lt;span style=&quot;forced-color-adjust: none;&quot;&gt;data integration&lt;/span&gt;&lt;/div&gt;&lt;div style=&quot;forced-color-adjust: none; color: rgb(0, 0, 0); font-family: Helvetica; font-size: 12px; font-style: normal; font-variant-ligatures: normal; font-variant-caps: normal; font-weight: 400; letter-spacing: normal; orphans: 2; text-indent: 0px; text-transform: none; widows: 2; word-spacing: 0px; -webkit-text-stroke-width: 0px; white-space: normal; background-color: rgb(236, 236, 236); text-decoration-thickness: initial; text-decoration-style: initial; text-decoration-color: initial; text-align: center;&quot;&gt;*aggrigation&lt;/div&gt;&lt;div style=&quot;forced-color-adjust: none; color: rgb(0, 0, 0); font-family: Helvetica; font-size: 12px; font-style: normal; font-variant-ligatures: normal; font-variant-caps: normal; font-weight: 400; letter-spacing: normal; orphans: 2; text-indent: 0px; text-transform: none; widows: 2; word-spacing: 0px; -webkit-text-stroke-width: 0px; white-space: normal; background-color: rgb(236, 236, 236); text-decoration-thickness: initial; text-decoration-style: initial; text-decoration-color: initial; text-align: center;&quot;&gt;*business logics&lt;/div&gt;&lt;div style=&quot;forced-color-adjust: none; color: rgb(0, 0, 0); font-family: Helvetica; font-size: 12px; font-style: normal; font-variant-ligatures: normal; font-variant-caps: normal; font-weight: 400; letter-spacing: normal; orphans: 2; text-indent: 0px; text-transform: none; widows: 2; word-spacing: 0px; -webkit-text-stroke-width: 0px; white-space: normal; background-color: rgb(236, 236, 236); text-decoration-thickness: initial; text-decoration-style: initial; text-decoration-color: initial; text-align: center;&quot;&gt;&lt;br&gt;&lt;/div&gt;" style="text;whiteSpace=wrap;html=1;" vertex="1" parent="1">
          <mxGeometry x="520" y="380" width="140" height="110" as="geometry" />
        </mxCell>
        <UserObject label="&lt;b&gt;Data modle:&amp;nbsp;&lt;/b&gt;&lt;div&gt;&lt;div style=&quot;text-align: justify;&quot;&gt;&lt;b style=&quot;background-color: transparent; color: light-dark(rgb(0, 0, 0), rgb(255, 255, 255));&quot;&gt;&amp;nbsp; *&lt;/b&gt;&lt;span style=&quot;background-color: transparent; color: light-dark(rgb(0, 0, 0), rgb(255, 255, 255));&quot;&gt;star schema&lt;/span&gt;&lt;/div&gt;&lt;div style=&quot;text-align: justify;&quot;&gt;&amp;nbsp;*flat table&lt;/div&gt;&lt;div style=&quot;text-align: justify;&quot;&gt;*aggegated table&lt;/div&gt;&lt;div&gt;&lt;br&gt;&lt;/div&gt;&lt;/div&gt;" placeholders="1" name="Variable" id="xlJZt9iA8LchDP0orwvZ-74">
          <mxCell style="text;html=1;strokeColor=none;fillColor=none;align=center;verticalAlign=middle;whiteSpace=wrap;overflow=hidden;" vertex="1" parent="1">
            <mxGeometry x="510" y="460" width="120" height="80" as="geometry" />
          </mxCell>
        </UserObject>
        <UserObject label="bi &amp;amp; reporting" placeholders="1" name="Variable" id="xlJZt9iA8LchDP0orwvZ-75">
          <mxCell style="text;html=1;strokeColor=none;fillColor=none;align=center;verticalAlign=middle;whiteSpace=wrap;overflow=hidden;fontStyle=1;fontSize=15;" vertex="1" parent="1">
            <mxGeometry x="700" y="240" width="80" height="50" as="geometry" />
          </mxCell>
        </UserObject>
        <mxCell id="xlJZt9iA8LchDP0orwvZ-79" value="" style="edgeStyle=orthogonalEdgeStyle;rounded=0;orthogonalLoop=1;jettySize=auto;html=1;" edge="1" parent="1" source="xlJZt9iA8LchDP0orwvZ-76" target="xlJZt9iA8LchDP0orwvZ-75">
          <mxGeometry relative="1" as="geometry" />
        </mxCell>
        <UserObject label="Ad-Hoc&lt;div&gt;SQL Quaries&lt;/div&gt;" placeholders="1" name="Variable" id="xlJZt9iA8LchDP0orwvZ-76">
          <mxCell style="text;html=1;strokeColor=none;fillColor=none;align=center;verticalAlign=middle;whiteSpace=wrap;overflow=hidden;fontStyle=1;fontSize=15;" vertex="1" parent="1">
            <mxGeometry x="700" y="315" width="80" height="75" as="geometry" />
          </mxCell>
        </UserObject>
        <mxCell id="xlJZt9iA8LchDP0orwvZ-77" value="" style="shape=singleArrow;whiteSpace=wrap;html=1;fillColor=#dae8fc;strokeColor=#6c8ebf;" vertex="1" parent="1">
          <mxGeometry x="620" y="230" width="80" height="50" as="geometry" />
        </mxCell>
        <UserObject label="%name% Text" placeholders="1" name="Variable" id="xlJZt9iA8LchDP0orwvZ-78">
          <mxCell style="text;html=1;strokeColor=none;fillColor=none;align=center;verticalAlign=middle;whiteSpace=wrap;overflow=hidden;" vertex="1" parent="1">
            <mxGeometry x="490" y="280" width="80" height="20" as="geometry" />
          </mxCell>
        </UserObject>
        <UserObject label="SOL server" placeholders="1" name="Variable" id="xlJZt9iA8LchDP0orwvZ-80">
          <mxCell style="text;html=1;strokeColor=none;fillColor=none;align=center;verticalAlign=middle;whiteSpace=wrap;overflow=hidden;fontStyle=1;fontSize=15;" vertex="1" parent="1">
            <mxGeometry x="190" y="55" width="110" height="50" as="geometry" />
          </mxCell>
        </UserObject>
      </root>
    </mxGraphModel>
  </diagram>
  <diagram id="TAXxeQI4tKu2KWyVLrTG" name="Page-2">
    <mxGraphModel dx="1303" dy="783" grid="1" gridSize="10" guides="1" tooltips="1" connect="1" arrows="1" fold="1" page="1" pageScale="1" pageWidth="850" pageHeight="1100" math="0" shadow="0">
      <root>
        <mxCell id="0" />
        <mxCell id="1" parent="0" />
        <mxCell id="5pjdmUuAzKBm_1oU-SuJ-124" value="OP" style="rounded=0;whiteSpace=wrap;html=1;fillColor=none;movable=1;resizable=1;rotatable=1;deletable=1;editable=1;locked=0;connectable=1;" vertex="1" parent="1">
          <mxGeometry x="130" y="230" width="120" height="450" as="geometry" />
        </mxCell>
        <mxCell id="5pjdmUuAzKBm_1oU-SuJ-125" value="source" style="rounded=1;whiteSpace=wrap;html=1;" vertex="1" parent="1">
          <mxGeometry x="130" y="230" width="120" height="30" as="geometry" />
        </mxCell>
        <mxCell id="5pjdmUuAzKBm_1oU-SuJ-126" value="" style="image;aspect=fixed;html=1;points=[];align=center;fontSize=12;image=img/lib/azure2/general/Folder_Blank.svg;" vertex="1" parent="1">
          <mxGeometry x="171.51999999999998" y="350" width="36.96" height="30" as="geometry" />
        </mxCell>
        <mxCell id="5pjdmUuAzKBm_1oU-SuJ-127" style="edgeStyle=orthogonalEdgeStyle;rounded=0;orthogonalLoop=1;jettySize=auto;html=1;exitX=0.9;exitY=0.1;exitDx=0;exitDy=0;exitPerimeter=0;entryX=0;entryY=0.75;entryDx=0;entryDy=0;" edge="1" parent="1" source="5pjdmUuAzKBm_1oU-SuJ-130" target="5pjdmUuAzKBm_1oU-SuJ-146">
          <mxGeometry relative="1" as="geometry" />
        </mxCell>
        <mxCell id="5pjdmUuAzKBm_1oU-SuJ-128" style="edgeStyle=orthogonalEdgeStyle;rounded=0;orthogonalLoop=1;jettySize=auto;html=1;exitX=0.9;exitY=0.1;exitDx=0;exitDy=0;exitPerimeter=0;entryX=0;entryY=0.5;entryDx=0;entryDy=0;" edge="1" parent="1" source="5pjdmUuAzKBm_1oU-SuJ-130" target="5pjdmUuAzKBm_1oU-SuJ-148">
          <mxGeometry relative="1" as="geometry" />
        </mxCell>
        <mxCell id="5pjdmUuAzKBm_1oU-SuJ-129" style="edgeStyle=orthogonalEdgeStyle;rounded=0;orthogonalLoop=1;jettySize=auto;html=1;exitX=0.9;exitY=0.1;exitDx=0;exitDy=0;exitPerimeter=0;" edge="1" parent="1" source="5pjdmUuAzKBm_1oU-SuJ-130" target="5pjdmUuAzKBm_1oU-SuJ-149">
          <mxGeometry relative="1" as="geometry" />
        </mxCell>
        <mxCell id="5pjdmUuAzKBm_1oU-SuJ-130" value="CRM&amp;nbsp; &amp;nbsp;" style="verticalLabelPosition=bottom;html=1;verticalAlign=top;align=center;strokeColor=none;fillColor=#00BEF2;shape=mxgraph.azure.cloud_services_configuration_file;pointerEvents=1;" vertex="1" parent="1">
          <mxGeometry x="190" y="370" width="20" height="20" as="geometry" />
        </mxCell>
        <mxCell id="5pjdmUuAzKBm_1oU-SuJ-131" value="" style="image;aspect=fixed;html=1;points=[];align=center;fontSize=12;image=img/lib/azure2/general/Folder_Blank.svg;" vertex="1" parent="1">
          <mxGeometry x="171.51999999999998" y="460" width="36.96" height="30" as="geometry" />
        </mxCell>
        <mxCell id="5pjdmUuAzKBm_1oU-SuJ-132" style="edgeStyle=orthogonalEdgeStyle;rounded=0;orthogonalLoop=1;jettySize=auto;html=1;exitX=1;exitY=0.5;exitDx=0;exitDy=0;exitPerimeter=0;" edge="1" parent="1" source="5pjdmUuAzKBm_1oU-SuJ-134" target="5pjdmUuAzKBm_1oU-SuJ-152">
          <mxGeometry relative="1" as="geometry" />
        </mxCell>
        <mxCell id="5pjdmUuAzKBm_1oU-SuJ-133" style="edgeStyle=orthogonalEdgeStyle;rounded=0;orthogonalLoop=1;jettySize=auto;html=1;exitX=1;exitY=0.5;exitDx=0;exitDy=0;exitPerimeter=0;entryX=0;entryY=0.75;entryDx=0;entryDy=0;" edge="1" parent="1" source="5pjdmUuAzKBm_1oU-SuJ-134" target="5pjdmUuAzKBm_1oU-SuJ-154">
          <mxGeometry relative="1" as="geometry" />
        </mxCell>
        <mxCell id="ZoypnU5FYQgUDDnxhe6U-1" style="edgeStyle=orthogonalEdgeStyle;rounded=0;orthogonalLoop=1;jettySize=auto;html=1;exitX=1;exitY=0.5;exitDx=0;exitDy=0;exitPerimeter=0;entryX=0;entryY=0.5;entryDx=0;entryDy=0;" edge="1" parent="1" source="5pjdmUuAzKBm_1oU-SuJ-134" target="5pjdmUuAzKBm_1oU-SuJ-151">
          <mxGeometry relative="1" as="geometry" />
        </mxCell>
        <mxCell id="5pjdmUuAzKBm_1oU-SuJ-134" value="ERP&amp;nbsp; &amp;nbsp;" style="verticalLabelPosition=bottom;html=1;verticalAlign=top;align=center;strokeColor=none;fillColor=#00BEF2;shape=mxgraph.azure.cloud_services_configuration_file;pointerEvents=1;" vertex="1" parent="1">
          <mxGeometry x="190" y="480" width="20" height="20" as="geometry" />
        </mxCell>
        <mxCell id="5pjdmUuAzKBm_1oU-SuJ-135" value="" style="shape=link;html=1;rounded=0;" edge="1" parent="1">
          <mxGeometry width="100" relative="1" as="geometry">
            <mxPoint x="140" y="550" as="sourcePoint" />
            <mxPoint x="240" y="550" as="targetPoint" />
          </mxGeometry>
        </mxCell>
        <mxCell id="5pjdmUuAzKBm_1oU-SuJ-136" value="OBJECT TYPE: CSV folder" style="text;html=1;align=center;verticalAlign=middle;whiteSpace=wrap;rounded=0;" vertex="1" parent="1">
          <mxGeometry x="140" y="590" width="100" height="10" as="geometry" />
        </mxCell>
        <mxCell id="5pjdmUuAzKBm_1oU-SuJ-137" value="interface: file in folder&lt;div&gt;&lt;br&gt;&lt;/div&gt;" style="text;html=1;align=center;verticalAlign=middle;whiteSpace=wrap;rounded=0;" vertex="1" parent="1">
          <mxGeometry x="140" y="640" width="100" height="10" as="geometry" />
        </mxCell>
        <mxCell id="5pjdmUuAzKBm_1oU-SuJ-138" value="" style="rounded=0;whiteSpace=wrap;html=1;fillColor=none;movable=1;resizable=1;rotatable=1;deletable=1;editable=1;locked=0;connectable=1;" vertex="1" parent="1">
          <mxGeometry x="300" y="230" width="120" height="450" as="geometry" />
        </mxCell>
        <mxCell id="5pjdmUuAzKBm_1oU-SuJ-139" value="" style="rounded=0;whiteSpace=wrap;html=1;fillColor=none;movable=1;resizable=1;rotatable=1;deletable=1;editable=1;locked=0;connectable=1;" vertex="1" parent="1">
          <mxGeometry x="619" y="230" width="120" height="450" as="geometry" />
        </mxCell>
        <mxCell id="5pjdmUuAzKBm_1oU-SuJ-140" value="" style="rounded=0;whiteSpace=wrap;html=1;fillColor=none;movable=1;resizable=1;rotatable=1;deletable=1;editable=1;locked=0;connectable=1;" vertex="1" parent="1">
          <mxGeometry x="455" y="230" width="120" height="450" as="geometry" />
        </mxCell>
        <UserObject label="BRONZE LAYER" placeholders="1" name="Variable" id="5pjdmUuAzKBm_1oU-SuJ-141">
          <mxCell style="text;html=1;strokeColor=none;fillColor=none;align=center;verticalAlign=middle;whiteSpace=wrap;overflow=hidden;fontColor=default;fontStyle=1;labelBackgroundColor=#B68200;" vertex="1" parent="1">
            <mxGeometry x="310" y="220" width="100" height="20" as="geometry" />
          </mxCell>
        </UserObject>
        <UserObject label="&lt;b&gt;DATA FLOW DIGRAM&lt;/b&gt;" placeholders="1" name="Variable" id="5pjdmUuAzKBm_1oU-SuJ-142">
          <mxCell style="text;html=1;strokeColor=none;fillColor=none;align=center;verticalAlign=middle;whiteSpace=wrap;overflow=hidden;" vertex="1" parent="1">
            <mxGeometry x="130" y="180" width="80" height="20" as="geometry" />
          </mxCell>
        </UserObject>
        <UserObject label="&lt;span style=&quot;background-color: rgb(231, 231, 231);&quot;&gt;SILVERLAYER&lt;/span&gt;" placeholders="1" name="Variable" id="5pjdmUuAzKBm_1oU-SuJ-143">
          <mxCell style="text;html=1;strokeColor=none;fillColor=none;align=center;verticalAlign=middle;whiteSpace=wrap;overflow=hidden;fontColor=default;fontStyle=1;labelBackgroundColor=#B68200;" vertex="1" parent="1">
            <mxGeometry x="460" y="220" width="100" height="20" as="geometry" />
          </mxCell>
        </UserObject>
        <UserObject label="GOLD" placeholders="1" name="Variable" id="5pjdmUuAzKBm_1oU-SuJ-144">
          <mxCell style="text;html=1;strokeColor=none;fillColor=none;align=center;verticalAlign=middle;whiteSpace=wrap;overflow=hidden;fontColor=default;fontStyle=1;labelBackgroundColor=#E7CE56;" vertex="1" parent="1">
            <mxGeometry x="630" y="220" width="100" height="20" as="geometry" />
          </mxCell>
        </UserObject>
        <mxCell id="5pjdmUuAzKBm_1oU-SuJ-145" style="edgeStyle=orthogonalEdgeStyle;rounded=0;orthogonalLoop=1;jettySize=auto;html=1;exitX=1;exitY=0.5;exitDx=0;exitDy=0;" edge="1" parent="1" source="5pjdmUuAzKBm_1oU-SuJ-146" target="5pjdmUuAzKBm_1oU-SuJ-157">
          <mxGeometry relative="1" as="geometry" />
        </mxCell>
        <UserObject label="crm_sales_details" placeholders="1" name="Variable" id="5pjdmUuAzKBm_1oU-SuJ-146">
          <mxCell style="text;html=1;strokeColor=none;fillColor=none;align=center;verticalAlign=middle;whiteSpace=wrap;overflow=hidden;fontColor=default;fontStyle=1;labelBackgroundColor=#B68200;" vertex="1" parent="1">
            <mxGeometry x="325" y="290" width="110" height="20" as="geometry" />
          </mxCell>
        </UserObject>
        <mxCell id="5pjdmUuAzKBm_1oU-SuJ-147" style="edgeStyle=orthogonalEdgeStyle;rounded=0;orthogonalLoop=1;jettySize=auto;html=1;exitX=1;exitY=0.5;exitDx=0;exitDy=0;" edge="1" parent="1" source="5pjdmUuAzKBm_1oU-SuJ-148" target="5pjdmUuAzKBm_1oU-SuJ-159">
          <mxGeometry relative="1" as="geometry" />
        </mxCell>
        <UserObject label="crm_cust_info" placeholders="1" name="Variable" id="5pjdmUuAzKBm_1oU-SuJ-148">
          <mxCell style="text;html=1;strokeColor=none;fillColor=none;align=center;verticalAlign=middle;whiteSpace=wrap;overflow=hidden;fontColor=default;fontStyle=1;labelBackgroundColor=#B68200;" vertex="1" parent="1">
            <mxGeometry x="325" y="330" width="80" height="20" as="geometry" />
          </mxCell>
        </UserObject>
        <UserObject label="crm_prd_info" placeholders="1" name="Variable" id="5pjdmUuAzKBm_1oU-SuJ-149">
          <mxCell style="text;html=1;strokeColor=none;fillColor=none;align=center;verticalAlign=middle;whiteSpace=wrap;overflow=hidden;fontColor=default;fontStyle=1;labelBackgroundColor=#B68200;" vertex="1" parent="1">
            <mxGeometry x="325" y="370" width="70" height="20" as="geometry" />
          </mxCell>
        </UserObject>
        <mxCell id="5pjdmUuAzKBm_1oU-SuJ-150" style="edgeStyle=orthogonalEdgeStyle;rounded=0;orthogonalLoop=1;jettySize=auto;html=1;exitX=1;exitY=0.5;exitDx=0;exitDy=0;" edge="1" parent="1" source="5pjdmUuAzKBm_1oU-SuJ-151" target="5pjdmUuAzKBm_1oU-SuJ-161">
          <mxGeometry relative="1" as="geometry" />
        </mxCell>
        <UserObject label="erp_cust_az12" placeholders="1" name="Variable" id="5pjdmUuAzKBm_1oU-SuJ-151">
          <mxCell style="text;html=1;strokeColor=none;fillColor=none;align=center;verticalAlign=middle;whiteSpace=wrap;overflow=hidden;fontColor=default;fontStyle=1;labelBackgroundColor=#B68200;" vertex="1" parent="1">
            <mxGeometry x="320" y="440" width="80" height="20" as="geometry" />
          </mxCell>
        </UserObject>
        <UserObject label="erp_loc_a101" placeholders="1" name="Variable" id="5pjdmUuAzKBm_1oU-SuJ-152">
          <mxCell style="text;html=1;strokeColor=none;fillColor=none;align=center;verticalAlign=middle;whiteSpace=wrap;overflow=hidden;fontColor=default;fontStyle=1;labelBackgroundColor=#B68200;" vertex="1" parent="1">
            <mxGeometry x="310" y="490" width="90" height="20" as="geometry" />
          </mxCell>
        </UserObject>
        <mxCell id="5pjdmUuAzKBm_1oU-SuJ-153" style="edgeStyle=orthogonalEdgeStyle;rounded=0;orthogonalLoop=1;jettySize=auto;html=1;exitX=1;exitY=0.5;exitDx=0;exitDy=0;" edge="1" parent="1" source="5pjdmUuAzKBm_1oU-SuJ-154" target="5pjdmUuAzKBm_1oU-SuJ-165">
          <mxGeometry relative="1" as="geometry" />
        </mxCell>
        <UserObject label="erp_px_cat_g1v2" placeholders="1" name="Variable" id="5pjdmUuAzKBm_1oU-SuJ-154">
          <mxCell style="text;html=1;strokeColor=none;fillColor=none;align=center;verticalAlign=middle;whiteSpace=wrap;overflow=hidden;fontColor=default;fontStyle=1;labelBackgroundColor=#B68200;" vertex="1" parent="1">
            <mxGeometry x="310" y="540" width="90" height="20" as="geometry" />
          </mxCell>
        </UserObject>
        <mxCell id="5pjdmUuAzKBm_1oU-SuJ-155" style="edgeStyle=orthogonalEdgeStyle;rounded=0;orthogonalLoop=1;jettySize=auto;html=1;exitX=0.9;exitY=0.1;exitDx=0;exitDy=0;exitPerimeter=0;entryX=0.167;entryY=0.16;entryDx=0;entryDy=0;entryPerimeter=0;" edge="1" parent="1" source="5pjdmUuAzKBm_1oU-SuJ-134" target="5pjdmUuAzKBm_1oU-SuJ-151">
          <mxGeometry relative="1" as="geometry" />
        </mxCell>
        <mxCell id="5pjdmUuAzKBm_1oU-SuJ-156" style="edgeStyle=orthogonalEdgeStyle;rounded=0;orthogonalLoop=1;jettySize=auto;html=1;exitX=1;exitY=0.5;exitDx=0;exitDy=0;entryX=0;entryY=0.5;entryDx=0;entryDy=0;" edge="1" parent="1" source="5pjdmUuAzKBm_1oU-SuJ-157" target="5pjdmUuAzKBm_1oU-SuJ-168">
          <mxGeometry relative="1" as="geometry" />
        </mxCell>
        <UserObject label="crm_sales_details" placeholders="1" name="Variable" id="5pjdmUuAzKBm_1oU-SuJ-157">
          <mxCell style="text;html=1;strokeColor=none;fillColor=none;align=center;verticalAlign=middle;whiteSpace=wrap;overflow=hidden;fontColor=default;fontStyle=1;labelBackgroundColor=#B68200;" vertex="1" parent="1">
            <mxGeometry x="450" y="290" width="120" height="20" as="geometry" />
          </mxCell>
        </UserObject>
        <mxCell id="5pjdmUuAzKBm_1oU-SuJ-158" style="edgeStyle=orthogonalEdgeStyle;rounded=0;orthogonalLoop=1;jettySize=auto;html=1;exitX=1;exitY=0.75;exitDx=0;exitDy=0;entryX=0.25;entryY=0;entryDx=0;entryDy=0;" edge="1" parent="1" source="5pjdmUuAzKBm_1oU-SuJ-159" target="5pjdmUuAzKBm_1oU-SuJ-169">
          <mxGeometry relative="1" as="geometry" />
        </mxCell>
        <UserObject label="crm_cust_info" placeholders="1" name="Variable" id="5pjdmUuAzKBm_1oU-SuJ-159">
          <mxCell style="text;html=1;strokeColor=none;fillColor=none;align=center;verticalAlign=middle;whiteSpace=wrap;overflow=hidden;fontColor=default;fontStyle=1;labelBackgroundColor=#B68200;" vertex="1" parent="1">
            <mxGeometry x="460" y="330" width="90" height="20" as="geometry" />
          </mxCell>
        </UserObject>
        <UserObject label="crm_prd_info" placeholders="1" name="Variable" id="5pjdmUuAzKBm_1oU-SuJ-160">
          <mxCell style="text;html=1;strokeColor=none;fillColor=none;align=center;verticalAlign=middle;whiteSpace=wrap;overflow=hidden;fontColor=default;fontStyle=1;labelBackgroundColor=#B68200;" vertex="1" parent="1">
            <mxGeometry x="470" y="370" width="80" height="20" as="geometry" />
          </mxCell>
        </UserObject>
        <UserObject label="erp_cust_az12" placeholders="1" name="Variable" id="5pjdmUuAzKBm_1oU-SuJ-161">
          <mxCell style="text;html=1;strokeColor=none;fillColor=none;align=center;verticalAlign=middle;whiteSpace=wrap;overflow=hidden;fontColor=default;fontStyle=1;labelBackgroundColor=#B68200;" vertex="1" parent="1">
            <mxGeometry x="470" y="460" width="90" height="20" as="geometry" />
          </mxCell>
        </UserObject>
        <mxCell id="5pjdmUuAzKBm_1oU-SuJ-162" style="edgeStyle=orthogonalEdgeStyle;rounded=0;orthogonalLoop=1;jettySize=auto;html=1;exitX=1;exitY=0.75;exitDx=0;exitDy=0;entryX=0;entryY=0.5;entryDx=0;entryDy=0;" edge="1" parent="1" source="5pjdmUuAzKBm_1oU-SuJ-163" target="5pjdmUuAzKBm_1oU-SuJ-169">
          <mxGeometry relative="1" as="geometry" />
        </mxCell>
        <UserObject label="erp_loc_a101" placeholders="1" name="Variable" id="5pjdmUuAzKBm_1oU-SuJ-163">
          <mxCell style="text;html=1;strokeColor=none;fillColor=none;align=center;verticalAlign=middle;whiteSpace=wrap;overflow=hidden;fontColor=default;fontStyle=1;labelBackgroundColor=#B68200;" vertex="1" parent="1">
            <mxGeometry x="475" y="510" width="80" height="20" as="geometry" />
          </mxCell>
        </UserObject>
        <mxCell id="5pjdmUuAzKBm_1oU-SuJ-164" style="edgeStyle=orthogonalEdgeStyle;rounded=0;orthogonalLoop=1;jettySize=auto;html=1;exitX=1;exitY=0.5;exitDx=0;exitDy=0;entryX=0.5;entryY=1;entryDx=0;entryDy=0;" edge="1" parent="1" source="5pjdmUuAzKBm_1oU-SuJ-165" target="5pjdmUuAzKBm_1oU-SuJ-170">
          <mxGeometry relative="1" as="geometry" />
        </mxCell>
        <UserObject label="erp_px_cat_g1v2" placeholders="1" name="Variable" id="5pjdmUuAzKBm_1oU-SuJ-165">
          <mxCell style="text;html=1;strokeColor=none;fillColor=none;align=center;verticalAlign=middle;whiteSpace=wrap;overflow=hidden;fontColor=default;fontStyle=1;labelBackgroundColor=#B68200;" vertex="1" parent="1">
            <mxGeometry x="470" y="560" width="95" height="20" as="geometry" />
          </mxCell>
        </UserObject>
        <mxCell id="5pjdmUuAzKBm_1oU-SuJ-166" style="edgeStyle=orthogonalEdgeStyle;rounded=0;orthogonalLoop=1;jettySize=auto;html=1;exitX=1;exitY=0.5;exitDx=0;exitDy=0;entryX=0.083;entryY=0.5;entryDx=0;entryDy=0;entryPerimeter=0;" edge="1" parent="1" source="5pjdmUuAzKBm_1oU-SuJ-149" target="5pjdmUuAzKBm_1oU-SuJ-160">
          <mxGeometry relative="1" as="geometry" />
        </mxCell>
        <mxCell id="5pjdmUuAzKBm_1oU-SuJ-167" style="edgeStyle=orthogonalEdgeStyle;rounded=0;orthogonalLoop=1;jettySize=auto;html=1;exitX=1;exitY=0.25;exitDx=0;exitDy=0;entryX=0.17;entryY=0.22;entryDx=0;entryDy=0;entryPerimeter=0;" edge="1" parent="1" source="5pjdmUuAzKBm_1oU-SuJ-152" target="5pjdmUuAzKBm_1oU-SuJ-163">
          <mxGeometry relative="1" as="geometry" />
        </mxCell>
        <UserObject label="fact_sales" placeholders="1" name="Variable" id="5pjdmUuAzKBm_1oU-SuJ-168">
          <mxCell style="text;html=1;strokeColor=none;fillColor=none;align=center;verticalAlign=middle;whiteSpace=wrap;overflow=hidden;fontColor=default;fontStyle=1;labelBackgroundColor=#E7CE56;" vertex="1" parent="1">
            <mxGeometry x="649" y="290" width="60" height="20" as="geometry" />
          </mxCell>
        </UserObject>
        <UserObject label="dim_customers" placeholders="1" name="Variable" id="5pjdmUuAzKBm_1oU-SuJ-169">
          <mxCell style="text;html=1;strokeColor=none;fillColor=none;align=center;verticalAlign=middle;whiteSpace=wrap;overflow=hidden;fontColor=default;fontStyle=1;labelBackgroundColor=#E7CE56;" vertex="1" parent="1">
            <mxGeometry x="629" y="420" width="100" height="20" as="geometry" />
          </mxCell>
        </UserObject>
        <UserObject label="dim_products" placeholders="1" name="Variable" id="5pjdmUuAzKBm_1oU-SuJ-170">
          <mxCell style="text;html=1;strokeColor=none;fillColor=none;align=center;verticalAlign=middle;whiteSpace=wrap;overflow=hidden;fontColor=default;fontStyle=1;labelBackgroundColor=#E7CE56;" vertex="1" parent="1">
            <mxGeometry x="639" y="510" width="80" height="20" as="geometry" />
          </mxCell>
        </UserObject>
        <mxCell id="5pjdmUuAzKBm_1oU-SuJ-171" style="edgeStyle=orthogonalEdgeStyle;rounded=0;orthogonalLoop=1;jettySize=auto;html=1;exitX=1;exitY=0.75;exitDx=0;exitDy=0;entryX=0.072;entryY=0.96;entryDx=0;entryDy=0;entryPerimeter=0;" edge="1" parent="1" source="5pjdmUuAzKBm_1oU-SuJ-161" target="5pjdmUuAzKBm_1oU-SuJ-169">
          <mxGeometry relative="1" as="geometry" />
        </mxCell>
        <mxCell id="5pjdmUuAzKBm_1oU-SuJ-172" style="edgeStyle=orthogonalEdgeStyle;rounded=0;orthogonalLoop=1;jettySize=auto;html=1;exitX=1;exitY=0.5;exitDx=0;exitDy=0;entryX=0.092;entryY=0.644;entryDx=0;entryDy=0;entryPerimeter=0;" edge="1" parent="1" source="5pjdmUuAzKBm_1oU-SuJ-160" target="5pjdmUuAzKBm_1oU-SuJ-139">
          <mxGeometry relative="1" as="geometry" />
        </mxCell>
      </root>
    </mxGraphModel>
  </diagram>
  <diagram id="JBmJu8C6YGSzIidacDnB" name="Page-3">
    <mxGraphModel dx="1028" dy="611" grid="1" gridSize="10" guides="1" tooltips="1" connect="1" arrows="1" fold="1" page="1" pageScale="1" pageWidth="850" pageHeight="1100" math="0" shadow="0">
      <root>
        <mxCell id="0" />
        <mxCell id="1" parent="0" />
        <mxCell id="4G85nuOJyNE3FMmWsJkW-1" value="&lt;b&gt;&lt;font style=&quot;font-size: 17px;&quot;&gt;data integration&amp;nbsp;&amp;nbsp;&lt;/font&gt;&lt;/b&gt;" style="text;html=1;align=center;verticalAlign=middle;whiteSpace=wrap;rounded=0;rotation=0;" vertex="1" parent="1">
          <mxGeometry x="80" y="90" width="160" height="30" as="geometry" />
        </mxCell>
        <mxCell id="4G85nuOJyNE3FMmWsJkW-2" value="crm_cust_info" style="swimlane;fontStyle=0;childLayout=stackLayout;horizontal=1;startSize=30;horizontalStack=0;resizeParent=1;resizeParentMax=0;resizeLast=0;collapsible=1;marginBottom=0;whiteSpace=wrap;html=1;fillColor=#dae8fc;strokeColor=#6c8ebf;" vertex="1" parent="1">
          <mxGeometry x="365" y="380" width="140" height="90" as="geometry" />
        </mxCell>
        <mxCell id="4G85nuOJyNE3FMmWsJkW-3" value="cst_id" style="text;strokeColor=none;fillColor=none;align=left;verticalAlign=middle;spacingLeft=4;spacingRight=4;overflow=hidden;points=[[0,0.5],[1,0.5]];portConstraint=eastwest;rotatable=0;whiteSpace=wrap;html=1;" vertex="1" parent="4G85nuOJyNE3FMmWsJkW-2">
          <mxGeometry y="30" width="140" height="30" as="geometry" />
        </mxCell>
        <mxCell id="4G85nuOJyNE3FMmWsJkW-26" value="cst_key" style="text;strokeColor=none;fillColor=none;align=left;verticalAlign=middle;spacingLeft=4;spacingRight=4;overflow=hidden;points=[[0,0.5],[1,0.5]];portConstraint=eastwest;rotatable=0;whiteSpace=wrap;html=1;" vertex="1" parent="4G85nuOJyNE3FMmWsJkW-2">
          <mxGeometry y="60" width="140" height="30" as="geometry" />
        </mxCell>
        <mxCell id="4G85nuOJyNE3FMmWsJkW-7" value="&lt;b&gt;&lt;font style=&quot;font-size: 14px;&quot;&gt;customer information&lt;/font&gt;&lt;/b&gt;" style="text;html=1;align=center;verticalAlign=middle;whiteSpace=wrap;rounded=0;" vertex="1" parent="1">
          <mxGeometry x="365" y="350" width="160" height="30" as="geometry" />
        </mxCell>
        <mxCell id="4G85nuOJyNE3FMmWsJkW-8" value="crm_prd_info" style="swimlane;fontStyle=0;childLayout=stackLayout;horizontal=1;startSize=30;horizontalStack=0;resizeParent=1;resizeParentMax=0;resizeLast=0;collapsible=1;marginBottom=0;whiteSpace=wrap;html=1;fillColor=#dae8fc;strokeColor=#6c8ebf;" vertex="1" parent="1">
          <mxGeometry x="365" y="270" width="140" height="60" as="geometry" />
        </mxCell>
        <mxCell id="4G85nuOJyNE3FMmWsJkW-9" value="pro_key" style="text;strokeColor=none;fillColor=none;align=left;verticalAlign=middle;spacingLeft=4;spacingRight=4;overflow=hidden;points=[[0,0.5],[1,0.5]];portConstraint=eastwest;rotatable=0;whiteSpace=wrap;html=1;" vertex="1" parent="4G85nuOJyNE3FMmWsJkW-8">
          <mxGeometry y="30" width="140" height="30" as="geometry" />
        </mxCell>
        <mxCell id="4G85nuOJyNE3FMmWsJkW-10" value="&lt;span style=&quot;font-size: 14px;&quot;&gt;&lt;b&gt;&amp;nbsp;current &amp;amp; histry product information&lt;/b&gt;&lt;/span&gt;" style="text;html=1;align=center;verticalAlign=middle;whiteSpace=wrap;rounded=0;" vertex="1" parent="1">
          <mxGeometry x="340" y="240" width="285" height="30" as="geometry" />
        </mxCell>
        <mxCell id="4G85nuOJyNE3FMmWsJkW-22" style="edgeStyle=orthogonalEdgeStyle;rounded=0;orthogonalLoop=1;jettySize=auto;html=1;exitX=1;exitY=0.25;exitDx=0;exitDy=0;" edge="1" parent="1" source="4G85nuOJyNE3FMmWsJkW-17" target="4G85nuOJyNE3FMmWsJkW-3">
          <mxGeometry relative="1" as="geometry">
            <Array as="points">
              <mxPoint x="260" y="345" />
              <mxPoint x="313" y="345" />
              <mxPoint x="313" y="425" />
            </Array>
          </mxGeometry>
        </mxCell>
        <mxCell id="4G85nuOJyNE3FMmWsJkW-24" style="edgeStyle=orthogonalEdgeStyle;rounded=0;orthogonalLoop=1;jettySize=auto;html=1;exitX=1;exitY=0.25;exitDx=0;exitDy=0;entryX=0;entryY=0.5;entryDx=0;entryDy=0;" edge="1" parent="1" source="4G85nuOJyNE3FMmWsJkW-17" target="4G85nuOJyNE3FMmWsJkW-9">
          <mxGeometry relative="1" as="geometry">
            <Array as="points">
              <mxPoint x="260" y="370" />
              <mxPoint x="313" y="370" />
              <mxPoint x="313" y="315" />
            </Array>
          </mxGeometry>
        </mxCell>
        <mxCell id="4G85nuOJyNE3FMmWsJkW-17" value="crm_sales_details" style="swimlane;fontStyle=0;childLayout=stackLayout;horizontal=1;startSize=30;horizontalStack=0;resizeParent=1;resizeParentMax=0;resizeLast=0;collapsible=1;marginBottom=0;whiteSpace=wrap;html=1;fillColor=#dae8fc;strokeColor=#6c8ebf;" vertex="1" parent="1">
          <mxGeometry x="120" y="300" width="140" height="90" as="geometry" />
        </mxCell>
        <mxCell id="4G85nuOJyNE3FMmWsJkW-18" value="pro_key" style="text;strokeColor=none;fillColor=none;align=left;verticalAlign=middle;spacingLeft=4;spacingRight=4;overflow=hidden;points=[[0,0.5],[1,0.5]];portConstraint=eastwest;rotatable=0;whiteSpace=wrap;html=1;" vertex="1" parent="4G85nuOJyNE3FMmWsJkW-17">
          <mxGeometry y="30" width="140" height="30" as="geometry" />
        </mxCell>
        <mxCell id="4G85nuOJyNE3FMmWsJkW-19" value="cst_id" style="text;strokeColor=none;fillColor=none;align=left;verticalAlign=middle;spacingLeft=4;spacingRight=4;overflow=hidden;points=[[0,0.5],[1,0.5]];portConstraint=eastwest;rotatable=0;whiteSpace=wrap;html=1;" vertex="1" parent="4G85nuOJyNE3FMmWsJkW-17">
          <mxGeometry y="60" width="140" height="30" as="geometry" />
        </mxCell>
        <mxCell id="4G85nuOJyNE3FMmWsJkW-20" value="&lt;span style=&quot;font-size: 14px;&quot;&gt;&lt;b&gt;transition record about product information and sales&lt;/b&gt;&lt;/span&gt;" style="text;html=1;align=center;verticalAlign=middle;whiteSpace=wrap;rounded=0;" vertex="1" parent="1">
          <mxGeometry x="60" y="260" width="290" height="30" as="geometry" />
        </mxCell>
        <mxCell id="4G85nuOJyNE3FMmWsJkW-27" value="erp_cust_az12" style="swimlane;fontStyle=0;childLayout=stackLayout;horizontal=1;startSize=30;horizontalStack=0;resizeParent=1;resizeParentMax=0;resizeLast=0;collapsible=1;marginBottom=0;whiteSpace=wrap;html=1;fillColor=#fff2cc;strokeColor=#d6b656;" vertex="1" parent="1">
          <mxGeometry x="720" y="310" width="140" height="60" as="geometry" />
        </mxCell>
        <mxCell id="4G85nuOJyNE3FMmWsJkW-28" value="cid" style="text;strokeColor=none;fillColor=none;align=left;verticalAlign=middle;spacingLeft=4;spacingRight=4;overflow=hidden;points=[[0,0.5],[1,0.5]];portConstraint=eastwest;rotatable=0;whiteSpace=wrap;html=1;" vertex="1" parent="4G85nuOJyNE3FMmWsJkW-27">
          <mxGeometry y="30" width="140" height="30" as="geometry" />
        </mxCell>
        <mxCell id="4G85nuOJyNE3FMmWsJkW-29" value="&lt;span style=&quot;font-size: 14px;&quot;&gt;&lt;b&gt;customer information birthdate&lt;/b&gt;&lt;/span&gt;" style="text;html=1;align=center;verticalAlign=middle;whiteSpace=wrap;rounded=0;" vertex="1" parent="1">
          <mxGeometry x="710" y="280" width="160" height="30" as="geometry" />
        </mxCell>
        <mxCell id="4G85nuOJyNE3FMmWsJkW-30" style="edgeStyle=orthogonalEdgeStyle;rounded=0;orthogonalLoop=1;jettySize=auto;html=1;exitX=0;exitY=0.5;exitDx=0;exitDy=0;entryX=1.009;entryY=0.293;entryDx=0;entryDy=0;entryPerimeter=0;" edge="1" parent="1" source="4G85nuOJyNE3FMmWsJkW-28" target="4G85nuOJyNE3FMmWsJkW-26">
          <mxGeometry relative="1" as="geometry">
            <Array as="points">
              <mxPoint x="680" y="355" />
              <mxPoint x="680" y="449" />
            </Array>
          </mxGeometry>
        </mxCell>
        <mxCell id="4G85nuOJyNE3FMmWsJkW-31" value="erp_loc_a101" style="swimlane;fontStyle=0;childLayout=stackLayout;horizontal=1;startSize=30;horizontalStack=0;resizeParent=1;resizeParentMax=0;resizeLast=0;collapsible=1;marginBottom=0;whiteSpace=wrap;html=1;fillColor=#fff2cc;strokeColor=#d6b656;" vertex="1" parent="1">
          <mxGeometry x="730" y="450" width="140" height="60" as="geometry" />
        </mxCell>
        <mxCell id="4G85nuOJyNE3FMmWsJkW-32" value="cid" style="text;strokeColor=none;fillColor=none;align=left;verticalAlign=middle;spacingLeft=4;spacingRight=4;overflow=hidden;points=[[0,0.5],[1,0.5]];portConstraint=eastwest;rotatable=0;whiteSpace=wrap;html=1;" vertex="1" parent="4G85nuOJyNE3FMmWsJkW-31">
          <mxGeometry y="30" width="140" height="30" as="geometry" />
        </mxCell>
        <mxCell id="4G85nuOJyNE3FMmWsJkW-35" value="&lt;b&gt;&lt;font style=&quot;font-size: 14px;&quot;&gt;country information&lt;/font&gt;&lt;/b&gt;" style="text;html=1;align=center;verticalAlign=middle;whiteSpace=wrap;rounded=0;" vertex="1" parent="1">
          <mxGeometry x="720" y="420" width="160" height="30" as="geometry" />
        </mxCell>
        <mxCell id="4G85nuOJyNE3FMmWsJkW-36" style="edgeStyle=orthogonalEdgeStyle;rounded=0;orthogonalLoop=1;jettySize=auto;html=1;exitX=0;exitY=0.5;exitDx=0;exitDy=0;entryX=1;entryY=0.5;entryDx=0;entryDy=0;" edge="1" parent="1" source="4G85nuOJyNE3FMmWsJkW-32" target="4G85nuOJyNE3FMmWsJkW-26">
          <mxGeometry relative="1" as="geometry">
            <Array as="points">
              <mxPoint x="680" y="460" />
              <mxPoint x="505" y="460" />
            </Array>
          </mxGeometry>
        </mxCell>
        <mxCell id="4G85nuOJyNE3FMmWsJkW-38" value="erp_px_cat_g1v2" style="swimlane;fontStyle=0;childLayout=stackLayout;horizontal=1;startSize=30;horizontalStack=0;resizeParent=1;resizeParentMax=0;resizeLast=0;collapsible=1;marginBottom=0;whiteSpace=wrap;html=1;fillColor=#fff2cc;strokeColor=#d6b656;" vertex="1" parent="1">
          <mxGeometry x="730" y="170" width="140" height="60" as="geometry" />
        </mxCell>
        <mxCell id="4G85nuOJyNE3FMmWsJkW-39" value="id" style="text;strokeColor=none;fillColor=none;align=left;verticalAlign=middle;spacingLeft=4;spacingRight=4;overflow=hidden;points=[[0,0.5],[1,0.5]];portConstraint=eastwest;rotatable=0;whiteSpace=wrap;html=1;" vertex="1" parent="4G85nuOJyNE3FMmWsJkW-38">
          <mxGeometry y="30" width="140" height="30" as="geometry" />
        </mxCell>
        <mxCell id="4G85nuOJyNE3FMmWsJkW-40" style="edgeStyle=orthogonalEdgeStyle;rounded=0;orthogonalLoop=1;jettySize=auto;html=1;" edge="1" parent="1" source="4G85nuOJyNE3FMmWsJkW-39" target="4G85nuOJyNE3FMmWsJkW-9">
          <mxGeometry relative="1" as="geometry">
            <Array as="points">
              <mxPoint x="680" y="220" />
              <mxPoint x="680" y="310" />
            </Array>
          </mxGeometry>
        </mxCell>
        <mxCell id="4G85nuOJyNE3FMmWsJkW-41" value="&lt;span style=&quot;font-size: 14px;&quot;&gt;&lt;b&gt;catagory product information&lt;/b&gt;&lt;/span&gt;" style="text;html=1;align=center;verticalAlign=middle;whiteSpace=wrap;rounded=0;" vertex="1" parent="1">
          <mxGeometry x="720" y="140" width="210" height="30" as="geometry" />
        </mxCell>
        <mxCell id="4G85nuOJyNE3FMmWsJkW-44" value="" style="rounded=1;whiteSpace=wrap;html=1;fillColor=none;" vertex="1" parent="1">
          <mxGeometry x="70" y="205" width="550" height="305" as="geometry" />
        </mxCell>
        <mxCell id="4G85nuOJyNE3FMmWsJkW-45" value="CRM" style="rounded=1;whiteSpace=wrap;html=1;fillColor=#dae8fc;strokeColor=#6c8ebf;" vertex="1" parent="1">
          <mxGeometry x="285" y="180" width="120" height="40" as="geometry" />
        </mxCell>
        <mxCell id="4G85nuOJyNE3FMmWsJkW-47" value="" style="rounded=1;whiteSpace=wrap;html=1;fillColor=none;" vertex="1" parent="1">
          <mxGeometry x="660" y="120" width="280" height="440" as="geometry" />
        </mxCell>
        <mxCell id="4G85nuOJyNE3FMmWsJkW-48" value="ERP" style="rounded=1;whiteSpace=wrap;html=1;fillColor=#fff2cc;strokeColor=#d6b656;" vertex="1" parent="1">
          <mxGeometry x="740" y="85" width="120" height="40" as="geometry" />
        </mxCell>
        <mxCell id="4G85nuOJyNE3FMmWsJkW-49" value="/5 digit maches" style="text;strokeColor=none;fillColor=none;align=left;verticalAlign=middle;spacingLeft=4;spacingRight=4;overflow=hidden;points=[[0,0.5],[1,0.5]];portConstraint=eastwest;rotatable=0;whiteSpace=wrap;html=1;movable=0;resizable=0;deletable=0;editable=0;locked=1;connectable=0;" vertex="1" parent="1">
          <mxGeometry x="750" y="200" width="120" height="30" as="geometry" />
        </mxCell>
        <mxCell id="4G85nuOJyNE3FMmWsJkW-53" value="" style="curved=1;endArrow=classic;html=1;rounded=0;fillColor=#e1d5e7;strokeColor=#9673a6;" edge="1" parent="1">
          <mxGeometry width="50" height="50" relative="1" as="geometry">
            <mxPoint x="300" y="540" as="sourcePoint" />
            <mxPoint x="360" y="430" as="targetPoint" />
            <Array as="points">
              <mxPoint x="360" y="480" />
              <mxPoint x="310" y="430" />
            </Array>
          </mxGeometry>
        </mxCell>
        <mxCell id="4G85nuOJyNE3FMmWsJkW-54" value="&lt;span style=&quot;font-size: 14px;&quot;&gt;&lt;b&gt;primary key&lt;/b&gt;&lt;/span&gt;" style="text;html=1;align=center;verticalAlign=middle;whiteSpace=wrap;rounded=0;" vertex="1" parent="1">
          <mxGeometry x="270" y="535" width="60" height="30" as="geometry" />
        </mxCell>
        <mxCell id="4G85nuOJyNE3FMmWsJkW-57" value="" style="curved=1;endArrow=classic;html=1;rounded=0;fillColor=#e1d5e7;strokeColor=#9673a6;" edge="1" parent="1">
          <mxGeometry width="50" height="50" relative="1" as="geometry">
            <mxPoint x="210" y="540" as="sourcePoint" />
            <mxPoint x="260" y="370" as="targetPoint" />
            <Array as="points">
              <mxPoint x="260" y="420" />
              <mxPoint x="210" y="370" />
            </Array>
          </mxGeometry>
        </mxCell>
        <mxCell id="4G85nuOJyNE3FMmWsJkW-58" value="&lt;span style=&quot;font-size: 14px;&quot;&gt;&lt;b&gt;forign key&lt;/b&gt;&lt;/span&gt;" style="text;html=1;align=center;verticalAlign=middle;whiteSpace=wrap;rounded=0;" vertex="1" parent="1">
          <mxGeometry x="180" y="535" width="60" height="30" as="geometry" />
        </mxCell>
        <UserObject label="&lt;b&gt;Product&lt;/b&gt;" placeholders="1" name="Variable" id="vTLVqyIytXJVznDHhXg2-4">
          <mxCell style="text;html=1;strokeColor=#b85450;fillColor=#f8cecc;align=center;verticalAlign=middle;whiteSpace=wrap;overflow=hidden;" vertex="1" parent="1">
            <mxGeometry x="367.5" y="330" width="135" height="20" as="geometry" />
          </mxCell>
        </UserObject>
        <UserObject label="&lt;b&gt;Product&lt;/b&gt;" placeholders="1" name="Variable" id="vTLVqyIytXJVznDHhXg2-5">
          <mxCell style="text;html=1;strokeColor=#b85450;fillColor=#f8cecc;align=center;verticalAlign=middle;whiteSpace=wrap;overflow=hidden;" vertex="1" parent="1">
            <mxGeometry x="732.5" y="230" width="135" height="20" as="geometry" />
          </mxCell>
        </UserObject>
        <UserObject label="&lt;b&gt;Customer&lt;/b&gt;" placeholders="1" name="Variable" id="vTLVqyIytXJVznDHhXg2-6">
          <mxCell style="text;html=1;strokeColor=#82b366;fillColor=#d5e8d4;align=center;verticalAlign=middle;whiteSpace=wrap;overflow=hidden;" vertex="1" parent="1">
            <mxGeometry x="722.5" y="370" width="135" height="20" as="geometry" />
          </mxCell>
        </UserObject>
        <UserObject label="&lt;b&gt;Customer&lt;/b&gt;" placeholders="1" name="Variable" id="vTLVqyIytXJVznDHhXg2-7">
          <mxCell style="text;html=1;strokeColor=#82b366;fillColor=#d5e8d4;align=center;verticalAlign=middle;whiteSpace=wrap;overflow=hidden;" vertex="1" parent="1">
            <mxGeometry x="730" y="510" width="135" height="20" as="geometry" />
          </mxCell>
        </UserObject>
        <UserObject label="&lt;b&gt;Customer&lt;/b&gt;" placeholders="1" name="Variable" id="vTLVqyIytXJVznDHhXg2-8">
          <mxCell style="text;html=1;strokeColor=#82b366;fillColor=#d5e8d4;align=center;verticalAlign=middle;whiteSpace=wrap;overflow=hidden;" vertex="1" parent="1">
            <mxGeometry x="367.5" y="465" width="135" height="20" as="geometry" />
          </mxCell>
        </UserObject>
        <UserObject label="&lt;b&gt;Sales&lt;/b&gt;" placeholders="1" name="Variable" id="vTLVqyIytXJVznDHhXg2-10">
          <mxCell style="text;html=1;strokeColor=#9673a6;fillColor=#e1d5e7;align=center;verticalAlign=middle;whiteSpace=wrap;overflow=hidden;" vertex="1" parent="1">
            <mxGeometry x="122.5" y="390" width="135" height="20" as="geometry" />
          </mxCell>
        </UserObject>
      </root>
    </mxGraphModel>
  </diagram>
  <diagram id="MIQDUXZr0iEpw0HSIXI_" name="Page-4">
    <mxGraphModel dx="1028" dy="611" grid="1" gridSize="10" guides="1" tooltips="1" connect="1" arrows="1" fold="1" page="1" pageScale="1" pageWidth="850" pageHeight="1100" math="0" shadow="0">
      <root>
        <mxCell id="0" />
        <mxCell id="1" parent="0" />
        <UserObject label="&lt;b&gt;&lt;font style=&quot;font-size: 17px;&quot;&gt;Data Mart&amp;nbsp; (star schema)&lt;/font&gt;&lt;/b&gt;" placeholders="1" name="Variable" id="D3dmjZLqvdNpPpIZ-XG3-2">
          <mxCell style="text;html=1;strokeColor=none;fillColor=none;align=center;verticalAlign=middle;whiteSpace=wrap;overflow=hidden;" vertex="1" parent="1">
            <mxGeometry x="20" y="30" width="230" height="20" as="geometry" />
          </mxCell>
        </UserObject>
        <mxCell id="D3dmjZLqvdNpPpIZ-XG3-3" value="gold.dim_customer" style="shape=table;startSize=30;container=1;collapsible=0;childLayout=tableLayout;fixedRows=1;rowLines=0;fontStyle=0;strokeColor=#d6b656;fontSize=16;fillColor=#fff2cc;" vertex="1" parent="1">
          <mxGeometry x="630" y="150" width="180" height="270" as="geometry" />
        </mxCell>
        <mxCell id="D3dmjZLqvdNpPpIZ-XG3-4" value="" style="shape=tableRow;horizontal=0;startSize=0;swimlaneHead=0;swimlaneBody=0;top=0;left=0;bottom=0;right=0;collapsible=0;dropTarget=0;fillColor=none;points=[[0,0.5],[1,0.5]];portConstraint=eastwest;strokeColor=inherit;fontSize=16;" vertex="1" parent="D3dmjZLqvdNpPpIZ-XG3-3">
          <mxGeometry y="30" width="180" height="30" as="geometry" />
        </mxCell>
        <mxCell id="D3dmjZLqvdNpPpIZ-XG3-5" value="PK2" style="shape=partialRectangle;html=1;whiteSpace=wrap;connectable=0;fillColor=none;top=0;left=0;bottom=0;right=0;overflow=hidden;pointerEvents=1;strokeColor=inherit;fontSize=16;" vertex="1" parent="D3dmjZLqvdNpPpIZ-XG3-4">
          <mxGeometry width="40" height="30" as="geometry">
            <mxRectangle width="40" height="30" as="alternateBounds" />
          </mxGeometry>
        </mxCell>
        <mxCell id="D3dmjZLqvdNpPpIZ-XG3-6" value="customer_key" style="shape=partialRectangle;html=1;whiteSpace=wrap;connectable=0;fillColor=none;top=0;left=0;bottom=0;right=0;align=left;spacingLeft=6;overflow=hidden;strokeColor=inherit;fontSize=16;" vertex="1" parent="D3dmjZLqvdNpPpIZ-XG3-4">
          <mxGeometry x="40" width="140" height="30" as="geometry">
            <mxRectangle width="140" height="30" as="alternateBounds" />
          </mxGeometry>
        </mxCell>
        <mxCell id="D3dmjZLqvdNpPpIZ-XG3-7" value="" style="shape=tableRow;horizontal=0;startSize=0;swimlaneHead=0;swimlaneBody=0;top=0;left=0;bottom=0;right=0;collapsible=0;dropTarget=0;fillColor=none;points=[[0,0.5],[1,0.5]];portConstraint=eastwest;strokeColor=inherit;fontSize=16;" vertex="1" parent="D3dmjZLqvdNpPpIZ-XG3-3">
          <mxGeometry y="60" width="180" height="30" as="geometry" />
        </mxCell>
        <mxCell id="D3dmjZLqvdNpPpIZ-XG3-8" value="" style="shape=partialRectangle;html=1;whiteSpace=wrap;connectable=0;fillColor=none;top=0;left=0;bottom=0;right=0;overflow=hidden;strokeColor=inherit;fontSize=16;" vertex="1" parent="D3dmjZLqvdNpPpIZ-XG3-7">
          <mxGeometry width="40" height="30" as="geometry">
            <mxRectangle width="40" height="30" as="alternateBounds" />
          </mxGeometry>
        </mxCell>
        <mxCell id="D3dmjZLqvdNpPpIZ-XG3-9" value="customer_number" style="shape=partialRectangle;html=1;whiteSpace=wrap;connectable=0;fillColor=none;top=0;left=0;bottom=0;right=0;align=left;spacingLeft=6;overflow=hidden;strokeColor=inherit;fontSize=16;" vertex="1" parent="D3dmjZLqvdNpPpIZ-XG3-7">
          <mxGeometry x="40" width="140" height="30" as="geometry">
            <mxRectangle width="140" height="30" as="alternateBounds" />
          </mxGeometry>
        </mxCell>
        <mxCell id="D3dmjZLqvdNpPpIZ-XG3-10" value="" style="shape=tableRow;horizontal=0;startSize=0;swimlaneHead=0;swimlaneBody=0;top=0;left=0;bottom=0;right=0;collapsible=0;dropTarget=0;fillColor=none;points=[[0,0.5],[1,0.5]];portConstraint=eastwest;strokeColor=inherit;fontSize=16;" vertex="1" parent="D3dmjZLqvdNpPpIZ-XG3-3">
          <mxGeometry y="90" width="180" height="30" as="geometry" />
        </mxCell>
        <mxCell id="D3dmjZLqvdNpPpIZ-XG3-11" value="" style="shape=partialRectangle;html=1;whiteSpace=wrap;connectable=0;fillColor=none;top=0;left=0;bottom=0;right=0;overflow=hidden;strokeColor=inherit;fontSize=16;" vertex="1" parent="D3dmjZLqvdNpPpIZ-XG3-10">
          <mxGeometry width="40" height="30" as="geometry">
            <mxRectangle width="40" height="30" as="alternateBounds" />
          </mxGeometry>
        </mxCell>
        <mxCell id="D3dmjZLqvdNpPpIZ-XG3-12" value="first_name" style="shape=partialRectangle;html=1;whiteSpace=wrap;connectable=0;fillColor=none;top=0;left=0;bottom=0;right=0;align=left;spacingLeft=6;overflow=hidden;strokeColor=inherit;fontSize=16;" vertex="1" parent="D3dmjZLqvdNpPpIZ-XG3-10">
          <mxGeometry x="40" width="140" height="30" as="geometry">
            <mxRectangle width="140" height="30" as="alternateBounds" />
          </mxGeometry>
        </mxCell>
        <mxCell id="D3dmjZLqvdNpPpIZ-XG3-16" value="" style="shape=tableRow;horizontal=0;startSize=0;swimlaneHead=0;swimlaneBody=0;top=0;left=0;bottom=0;right=0;collapsible=0;dropTarget=0;fillColor=none;points=[[0,0.5],[1,0.5]];portConstraint=eastwest;strokeColor=inherit;fontSize=16;" vertex="1" parent="D3dmjZLqvdNpPpIZ-XG3-3">
          <mxGeometry y="120" width="180" height="30" as="geometry" />
        </mxCell>
        <mxCell id="D3dmjZLqvdNpPpIZ-XG3-17" value="" style="shape=partialRectangle;html=1;whiteSpace=wrap;connectable=0;fillColor=none;top=0;left=0;bottom=0;right=0;overflow=hidden;strokeColor=inherit;fontSize=16;" vertex="1" parent="D3dmjZLqvdNpPpIZ-XG3-16">
          <mxGeometry width="40" height="30" as="geometry">
            <mxRectangle width="40" height="30" as="alternateBounds" />
          </mxGeometry>
        </mxCell>
        <mxCell id="D3dmjZLqvdNpPpIZ-XG3-18" value="country" style="shape=partialRectangle;html=1;whiteSpace=wrap;connectable=0;fillColor=none;top=0;left=0;bottom=0;right=0;align=left;spacingLeft=6;overflow=hidden;strokeColor=inherit;fontSize=16;" vertex="1" parent="D3dmjZLqvdNpPpIZ-XG3-16">
          <mxGeometry x="40" width="140" height="30" as="geometry">
            <mxRectangle width="140" height="30" as="alternateBounds" />
          </mxGeometry>
        </mxCell>
        <mxCell id="D3dmjZLqvdNpPpIZ-XG3-25" value="" style="shape=tableRow;horizontal=0;startSize=0;swimlaneHead=0;swimlaneBody=0;top=0;left=0;bottom=0;right=0;collapsible=0;dropTarget=0;fillColor=none;points=[[0,0.5],[1,0.5]];portConstraint=eastwest;strokeColor=inherit;fontSize=16;" vertex="1" parent="D3dmjZLqvdNpPpIZ-XG3-3">
          <mxGeometry y="150" width="180" height="30" as="geometry" />
        </mxCell>
        <mxCell id="D3dmjZLqvdNpPpIZ-XG3-26" value="" style="shape=partialRectangle;html=1;whiteSpace=wrap;connectable=0;fillColor=none;top=0;left=0;bottom=0;right=0;overflow=hidden;strokeColor=inherit;fontSize=16;" vertex="1" parent="D3dmjZLqvdNpPpIZ-XG3-25">
          <mxGeometry width="40" height="30" as="geometry">
            <mxRectangle width="40" height="30" as="alternateBounds" />
          </mxGeometry>
        </mxCell>
        <mxCell id="D3dmjZLqvdNpPpIZ-XG3-27" value="marital_status" style="shape=partialRectangle;html=1;whiteSpace=wrap;connectable=0;fillColor=none;top=0;left=0;bottom=0;right=0;align=left;spacingLeft=6;overflow=hidden;strokeColor=inherit;fontSize=16;" vertex="1" parent="D3dmjZLqvdNpPpIZ-XG3-25">
          <mxGeometry x="40" width="140" height="30" as="geometry">
            <mxRectangle width="140" height="30" as="alternateBounds" />
          </mxGeometry>
        </mxCell>
        <mxCell id="D3dmjZLqvdNpPpIZ-XG3-28" value="" style="shape=tableRow;horizontal=0;startSize=0;swimlaneHead=0;swimlaneBody=0;top=0;left=0;bottom=0;right=0;collapsible=0;dropTarget=0;fillColor=none;points=[[0,0.5],[1,0.5]];portConstraint=eastwest;strokeColor=inherit;fontSize=16;" vertex="1" parent="D3dmjZLqvdNpPpIZ-XG3-3">
          <mxGeometry y="180" width="180" height="30" as="geometry" />
        </mxCell>
        <mxCell id="D3dmjZLqvdNpPpIZ-XG3-29" value="" style="shape=partialRectangle;html=1;whiteSpace=wrap;connectable=0;fillColor=none;top=0;left=0;bottom=0;right=0;overflow=hidden;strokeColor=inherit;fontSize=16;" vertex="1" parent="D3dmjZLqvdNpPpIZ-XG3-28">
          <mxGeometry width="40" height="30" as="geometry">
            <mxRectangle width="40" height="30" as="alternateBounds" />
          </mxGeometry>
        </mxCell>
        <mxCell id="D3dmjZLqvdNpPpIZ-XG3-30" value="gender" style="shape=partialRectangle;html=1;whiteSpace=wrap;connectable=0;fillColor=none;top=0;left=0;bottom=0;right=0;align=left;spacingLeft=6;overflow=hidden;strokeColor=inherit;fontSize=16;" vertex="1" parent="D3dmjZLqvdNpPpIZ-XG3-28">
          <mxGeometry x="40" width="140" height="30" as="geometry">
            <mxRectangle width="140" height="30" as="alternateBounds" />
          </mxGeometry>
        </mxCell>
        <mxCell id="D3dmjZLqvdNpPpIZ-XG3-31" value="" style="shape=tableRow;horizontal=0;startSize=0;swimlaneHead=0;swimlaneBody=0;top=0;left=0;bottom=0;right=0;collapsible=0;dropTarget=0;fillColor=none;points=[[0,0.5],[1,0.5]];portConstraint=eastwest;strokeColor=inherit;fontSize=16;" vertex="1" parent="D3dmjZLqvdNpPpIZ-XG3-3">
          <mxGeometry y="210" width="180" height="30" as="geometry" />
        </mxCell>
        <mxCell id="D3dmjZLqvdNpPpIZ-XG3-32" value="" style="shape=partialRectangle;html=1;whiteSpace=wrap;connectable=0;fillColor=none;top=0;left=0;bottom=0;right=0;overflow=hidden;strokeColor=inherit;fontSize=16;" vertex="1" parent="D3dmjZLqvdNpPpIZ-XG3-31">
          <mxGeometry width="40" height="30" as="geometry">
            <mxRectangle width="40" height="30" as="alternateBounds" />
          </mxGeometry>
        </mxCell>
        <mxCell id="D3dmjZLqvdNpPpIZ-XG3-33" value="birthdate" style="shape=partialRectangle;html=1;whiteSpace=wrap;connectable=0;fillColor=none;top=0;left=0;bottom=0;right=0;align=left;spacingLeft=6;overflow=hidden;strokeColor=inherit;fontSize=16;" vertex="1" parent="D3dmjZLqvdNpPpIZ-XG3-31">
          <mxGeometry x="40" width="140" height="30" as="geometry">
            <mxRectangle width="140" height="30" as="alternateBounds" />
          </mxGeometry>
        </mxCell>
        <mxCell id="D3dmjZLqvdNpPpIZ-XG3-34" value="" style="shape=tableRow;horizontal=0;startSize=0;swimlaneHead=0;swimlaneBody=0;top=0;left=0;bottom=0;right=0;collapsible=0;dropTarget=0;fillColor=none;points=[[0,0.5],[1,0.5]];portConstraint=eastwest;strokeColor=inherit;fontSize=16;" vertex="1" parent="D3dmjZLqvdNpPpIZ-XG3-3">
          <mxGeometry y="240" width="180" height="30" as="geometry" />
        </mxCell>
        <mxCell id="D3dmjZLqvdNpPpIZ-XG3-35" value="" style="shape=partialRectangle;html=1;whiteSpace=wrap;connectable=0;fillColor=none;top=0;left=0;bottom=0;right=0;overflow=hidden;strokeColor=inherit;fontSize=16;" vertex="1" parent="D3dmjZLqvdNpPpIZ-XG3-34">
          <mxGeometry width="40" height="30" as="geometry">
            <mxRectangle width="40" height="30" as="alternateBounds" />
          </mxGeometry>
        </mxCell>
        <mxCell id="D3dmjZLqvdNpPpIZ-XG3-36" value="create_date" style="shape=partialRectangle;html=1;whiteSpace=wrap;connectable=0;fillColor=none;top=0;left=0;bottom=0;right=0;align=left;spacingLeft=6;overflow=hidden;strokeColor=inherit;fontSize=16;" vertex="1" parent="D3dmjZLqvdNpPpIZ-XG3-34">
          <mxGeometry x="40" width="140" height="30" as="geometry">
            <mxRectangle width="140" height="30" as="alternateBounds" />
          </mxGeometry>
        </mxCell>
        <mxCell id="D3dmjZLqvdNpPpIZ-XG3-37" value="gold.dim_products" style="shape=table;startSize=30;container=1;collapsible=0;childLayout=tableLayout;fixedRows=1;rowLines=0;fontStyle=0;strokeColor=#6c8ebf;fontSize=16;fillColor=#dae8fc;" vertex="1" parent="1">
          <mxGeometry x="60" y="150" width="180" height="360" as="geometry" />
        </mxCell>
        <mxCell id="D3dmjZLqvdNpPpIZ-XG3-38" value="" style="shape=tableRow;horizontal=0;startSize=0;swimlaneHead=0;swimlaneBody=0;top=0;left=0;bottom=0;right=0;collapsible=0;dropTarget=0;fillColor=none;points=[[0,0.5],[1,0.5]];portConstraint=eastwest;strokeColor=inherit;fontSize=16;" vertex="1" parent="D3dmjZLqvdNpPpIZ-XG3-37">
          <mxGeometry y="30" width="180" height="30" as="geometry" />
        </mxCell>
        <mxCell id="D3dmjZLqvdNpPpIZ-XG3-39" value="PK1" style="shape=partialRectangle;html=1;whiteSpace=wrap;connectable=0;fillColor=none;top=0;left=0;bottom=0;right=0;overflow=hidden;pointerEvents=1;strokeColor=inherit;fontSize=16;" vertex="1" parent="D3dmjZLqvdNpPpIZ-XG3-38">
          <mxGeometry width="40" height="30" as="geometry">
            <mxRectangle width="40" height="30" as="alternateBounds" />
          </mxGeometry>
        </mxCell>
        <mxCell id="D3dmjZLqvdNpPpIZ-XG3-40" value="product_key" style="shape=partialRectangle;html=1;whiteSpace=wrap;connectable=0;fillColor=none;top=0;left=0;bottom=0;right=0;align=left;spacingLeft=6;overflow=hidden;strokeColor=inherit;fontSize=16;" vertex="1" parent="D3dmjZLqvdNpPpIZ-XG3-38">
          <mxGeometry x="40" width="140" height="30" as="geometry">
            <mxRectangle width="140" height="30" as="alternateBounds" />
          </mxGeometry>
        </mxCell>
        <mxCell id="D3dmjZLqvdNpPpIZ-XG3-41" value="" style="shape=tableRow;horizontal=0;startSize=0;swimlaneHead=0;swimlaneBody=0;top=0;left=0;bottom=0;right=0;collapsible=0;dropTarget=0;fillColor=none;points=[[0,0.5],[1,0.5]];portConstraint=eastwest;strokeColor=inherit;fontSize=16;" vertex="1" parent="D3dmjZLqvdNpPpIZ-XG3-37">
          <mxGeometry y="60" width="180" height="30" as="geometry" />
        </mxCell>
        <mxCell id="D3dmjZLqvdNpPpIZ-XG3-42" value="" style="shape=partialRectangle;html=1;whiteSpace=wrap;connectable=0;fillColor=none;top=0;left=0;bottom=0;right=0;overflow=hidden;strokeColor=inherit;fontSize=16;" vertex="1" parent="D3dmjZLqvdNpPpIZ-XG3-41">
          <mxGeometry width="40" height="30" as="geometry">
            <mxRectangle width="40" height="30" as="alternateBounds" />
          </mxGeometry>
        </mxCell>
        <mxCell id="D3dmjZLqvdNpPpIZ-XG3-43" value="product_id" style="shape=partialRectangle;html=1;whiteSpace=wrap;connectable=0;fillColor=none;top=0;left=0;bottom=0;right=0;align=left;spacingLeft=6;overflow=hidden;strokeColor=inherit;fontSize=16;" vertex="1" parent="D3dmjZLqvdNpPpIZ-XG3-41">
          <mxGeometry x="40" width="140" height="30" as="geometry">
            <mxRectangle width="140" height="30" as="alternateBounds" />
          </mxGeometry>
        </mxCell>
        <mxCell id="D3dmjZLqvdNpPpIZ-XG3-44" value="" style="shape=tableRow;horizontal=0;startSize=0;swimlaneHead=0;swimlaneBody=0;top=0;left=0;bottom=0;right=0;collapsible=0;dropTarget=0;fillColor=none;points=[[0,0.5],[1,0.5]];portConstraint=eastwest;strokeColor=inherit;fontSize=16;" vertex="1" parent="D3dmjZLqvdNpPpIZ-XG3-37">
          <mxGeometry y="90" width="180" height="30" as="geometry" />
        </mxCell>
        <mxCell id="D3dmjZLqvdNpPpIZ-XG3-45" value="" style="shape=partialRectangle;html=1;whiteSpace=wrap;connectable=0;fillColor=none;top=0;left=0;bottom=0;right=0;overflow=hidden;strokeColor=inherit;fontSize=16;" vertex="1" parent="D3dmjZLqvdNpPpIZ-XG3-44">
          <mxGeometry width="40" height="30" as="geometry">
            <mxRectangle width="40" height="30" as="alternateBounds" />
          </mxGeometry>
        </mxCell>
        <mxCell id="D3dmjZLqvdNpPpIZ-XG3-46" value="product_number" style="shape=partialRectangle;html=1;whiteSpace=wrap;connectable=0;fillColor=none;top=0;left=0;bottom=0;right=0;align=left;spacingLeft=6;overflow=hidden;strokeColor=inherit;fontSize=16;" vertex="1" parent="D3dmjZLqvdNpPpIZ-XG3-44">
          <mxGeometry x="40" width="140" height="30" as="geometry">
            <mxRectangle width="140" height="30" as="alternateBounds" />
          </mxGeometry>
        </mxCell>
        <mxCell id="D3dmjZLqvdNpPpIZ-XG3-47" value="" style="shape=tableRow;horizontal=0;startSize=0;swimlaneHead=0;swimlaneBody=0;top=0;left=0;bottom=0;right=0;collapsible=0;dropTarget=0;fillColor=none;points=[[0,0.5],[1,0.5]];portConstraint=eastwest;strokeColor=inherit;fontSize=16;" vertex="1" parent="D3dmjZLqvdNpPpIZ-XG3-37">
          <mxGeometry y="120" width="180" height="30" as="geometry" />
        </mxCell>
        <mxCell id="D3dmjZLqvdNpPpIZ-XG3-48" value="" style="shape=partialRectangle;html=1;whiteSpace=wrap;connectable=0;fillColor=none;top=0;left=0;bottom=0;right=0;overflow=hidden;strokeColor=inherit;fontSize=16;" vertex="1" parent="D3dmjZLqvdNpPpIZ-XG3-47">
          <mxGeometry width="40" height="30" as="geometry">
            <mxRectangle width="40" height="30" as="alternateBounds" />
          </mxGeometry>
        </mxCell>
        <mxCell id="D3dmjZLqvdNpPpIZ-XG3-49" value="product_name" style="shape=partialRectangle;html=1;whiteSpace=wrap;connectable=0;fillColor=none;top=0;left=0;bottom=0;right=0;align=left;spacingLeft=6;overflow=hidden;strokeColor=inherit;fontSize=16;" vertex="1" parent="D3dmjZLqvdNpPpIZ-XG3-47">
          <mxGeometry x="40" width="140" height="30" as="geometry">
            <mxRectangle width="140" height="30" as="alternateBounds" />
          </mxGeometry>
        </mxCell>
        <mxCell id="D3dmjZLqvdNpPpIZ-XG3-50" value="" style="shape=tableRow;horizontal=0;startSize=0;swimlaneHead=0;swimlaneBody=0;top=0;left=0;bottom=0;right=0;collapsible=0;dropTarget=0;fillColor=none;points=[[0,0.5],[1,0.5]];portConstraint=eastwest;strokeColor=inherit;fontSize=16;" vertex="1" parent="D3dmjZLqvdNpPpIZ-XG3-37">
          <mxGeometry y="150" width="180" height="30" as="geometry" />
        </mxCell>
        <mxCell id="D3dmjZLqvdNpPpIZ-XG3-51" value="" style="shape=partialRectangle;html=1;whiteSpace=wrap;connectable=0;fillColor=none;top=0;left=0;bottom=0;right=0;overflow=hidden;strokeColor=inherit;fontSize=16;" vertex="1" parent="D3dmjZLqvdNpPpIZ-XG3-50">
          <mxGeometry width="40" height="30" as="geometry">
            <mxRectangle width="40" height="30" as="alternateBounds" />
          </mxGeometry>
        </mxCell>
        <mxCell id="D3dmjZLqvdNpPpIZ-XG3-52" value="catagory_id" style="shape=partialRectangle;html=1;whiteSpace=wrap;connectable=0;fillColor=none;top=0;left=0;bottom=0;right=0;align=left;spacingLeft=6;overflow=hidden;strokeColor=inherit;fontSize=16;" vertex="1" parent="D3dmjZLqvdNpPpIZ-XG3-50">
          <mxGeometry x="40" width="140" height="30" as="geometry">
            <mxRectangle width="140" height="30" as="alternateBounds" />
          </mxGeometry>
        </mxCell>
        <mxCell id="D3dmjZLqvdNpPpIZ-XG3-53" value="" style="shape=tableRow;horizontal=0;startSize=0;swimlaneHead=0;swimlaneBody=0;top=0;left=0;bottom=0;right=0;collapsible=0;dropTarget=0;fillColor=none;points=[[0,0.5],[1,0.5]];portConstraint=eastwest;strokeColor=inherit;fontSize=16;" vertex="1" parent="D3dmjZLqvdNpPpIZ-XG3-37">
          <mxGeometry y="180" width="180" height="30" as="geometry" />
        </mxCell>
        <mxCell id="D3dmjZLqvdNpPpIZ-XG3-54" value="" style="shape=partialRectangle;html=1;whiteSpace=wrap;connectable=0;fillColor=none;top=0;left=0;bottom=0;right=0;overflow=hidden;strokeColor=inherit;fontSize=16;" vertex="1" parent="D3dmjZLqvdNpPpIZ-XG3-53">
          <mxGeometry width="40" height="30" as="geometry">
            <mxRectangle width="40" height="30" as="alternateBounds" />
          </mxGeometry>
        </mxCell>
        <mxCell id="D3dmjZLqvdNpPpIZ-XG3-55" value="catagory" style="shape=partialRectangle;html=1;whiteSpace=wrap;connectable=0;fillColor=none;top=0;left=0;bottom=0;right=0;align=left;spacingLeft=6;overflow=hidden;strokeColor=inherit;fontSize=16;" vertex="1" parent="D3dmjZLqvdNpPpIZ-XG3-53">
          <mxGeometry x="40" width="140" height="30" as="geometry">
            <mxRectangle width="140" height="30" as="alternateBounds" />
          </mxGeometry>
        </mxCell>
        <mxCell id="D3dmjZLqvdNpPpIZ-XG3-56" value="" style="shape=tableRow;horizontal=0;startSize=0;swimlaneHead=0;swimlaneBody=0;top=0;left=0;bottom=0;right=0;collapsible=0;dropTarget=0;fillColor=none;points=[[0,0.5],[1,0.5]];portConstraint=eastwest;strokeColor=inherit;fontSize=16;" vertex="1" parent="D3dmjZLqvdNpPpIZ-XG3-37">
          <mxGeometry y="210" width="180" height="30" as="geometry" />
        </mxCell>
        <mxCell id="D3dmjZLqvdNpPpIZ-XG3-57" value="" style="shape=partialRectangle;html=1;whiteSpace=wrap;connectable=0;fillColor=none;top=0;left=0;bottom=0;right=0;overflow=hidden;strokeColor=inherit;fontSize=16;" vertex="1" parent="D3dmjZLqvdNpPpIZ-XG3-56">
          <mxGeometry width="40" height="30" as="geometry">
            <mxRectangle width="40" height="30" as="alternateBounds" />
          </mxGeometry>
        </mxCell>
        <mxCell id="D3dmjZLqvdNpPpIZ-XG3-58" value="subcatagory" style="shape=partialRectangle;html=1;whiteSpace=wrap;connectable=0;fillColor=none;top=0;left=0;bottom=0;right=0;align=left;spacingLeft=6;overflow=hidden;strokeColor=inherit;fontSize=16;" vertex="1" parent="D3dmjZLqvdNpPpIZ-XG3-56">
          <mxGeometry x="40" width="140" height="30" as="geometry">
            <mxRectangle width="140" height="30" as="alternateBounds" />
          </mxGeometry>
        </mxCell>
        <mxCell id="D3dmjZLqvdNpPpIZ-XG3-59" value="" style="shape=tableRow;horizontal=0;startSize=0;swimlaneHead=0;swimlaneBody=0;top=0;left=0;bottom=0;right=0;collapsible=0;dropTarget=0;fillColor=none;points=[[0,0.5],[1,0.5]];portConstraint=eastwest;strokeColor=inherit;fontSize=16;" vertex="1" parent="D3dmjZLqvdNpPpIZ-XG3-37">
          <mxGeometry y="240" width="180" height="30" as="geometry" />
        </mxCell>
        <mxCell id="D3dmjZLqvdNpPpIZ-XG3-60" value="" style="shape=partialRectangle;html=1;whiteSpace=wrap;connectable=0;fillColor=none;top=0;left=0;bottom=0;right=0;overflow=hidden;strokeColor=inherit;fontSize=16;" vertex="1" parent="D3dmjZLqvdNpPpIZ-XG3-59">
          <mxGeometry width="40" height="30" as="geometry">
            <mxRectangle width="40" height="30" as="alternateBounds" />
          </mxGeometry>
        </mxCell>
        <mxCell id="D3dmjZLqvdNpPpIZ-XG3-61" value="maintenance" style="shape=partialRectangle;html=1;whiteSpace=wrap;connectable=0;fillColor=none;top=0;left=0;bottom=0;right=0;align=left;spacingLeft=6;overflow=hidden;strokeColor=inherit;fontSize=16;" vertex="1" parent="D3dmjZLqvdNpPpIZ-XG3-59">
          <mxGeometry x="40" width="140" height="30" as="geometry">
            <mxRectangle width="140" height="30" as="alternateBounds" />
          </mxGeometry>
        </mxCell>
        <mxCell id="D3dmjZLqvdNpPpIZ-XG3-62" value="" style="shape=tableRow;horizontal=0;startSize=0;swimlaneHead=0;swimlaneBody=0;top=0;left=0;bottom=0;right=0;collapsible=0;dropTarget=0;fillColor=none;points=[[0,0.5],[1,0.5]];portConstraint=eastwest;strokeColor=inherit;fontSize=16;" vertex="1" parent="D3dmjZLqvdNpPpIZ-XG3-37">
          <mxGeometry y="270" width="180" height="30" as="geometry" />
        </mxCell>
        <mxCell id="D3dmjZLqvdNpPpIZ-XG3-63" value="" style="shape=partialRectangle;html=1;whiteSpace=wrap;connectable=0;fillColor=none;top=0;left=0;bottom=0;right=0;overflow=hidden;strokeColor=inherit;fontSize=16;" vertex="1" parent="D3dmjZLqvdNpPpIZ-XG3-62">
          <mxGeometry width="40" height="30" as="geometry">
            <mxRectangle width="40" height="30" as="alternateBounds" />
          </mxGeometry>
        </mxCell>
        <mxCell id="D3dmjZLqvdNpPpIZ-XG3-64" value="product_cost" style="shape=partialRectangle;html=1;whiteSpace=wrap;connectable=0;fillColor=none;top=0;left=0;bottom=0;right=0;align=left;spacingLeft=6;overflow=hidden;strokeColor=inherit;fontSize=16;" vertex="1" parent="D3dmjZLqvdNpPpIZ-XG3-62">
          <mxGeometry x="40" width="140" height="30" as="geometry">
            <mxRectangle width="140" height="30" as="alternateBounds" />
          </mxGeometry>
        </mxCell>
        <mxCell id="D3dmjZLqvdNpPpIZ-XG3-65" value="" style="shape=tableRow;horizontal=0;startSize=0;swimlaneHead=0;swimlaneBody=0;top=0;left=0;bottom=0;right=0;collapsible=0;dropTarget=0;fillColor=none;points=[[0,0.5],[1,0.5]];portConstraint=eastwest;strokeColor=inherit;fontSize=16;" vertex="1" parent="D3dmjZLqvdNpPpIZ-XG3-37">
          <mxGeometry y="300" width="180" height="30" as="geometry" />
        </mxCell>
        <mxCell id="D3dmjZLqvdNpPpIZ-XG3-66" value="" style="shape=partialRectangle;html=1;whiteSpace=wrap;connectable=0;fillColor=none;top=0;left=0;bottom=0;right=0;overflow=hidden;strokeColor=inherit;fontSize=16;" vertex="1" parent="D3dmjZLqvdNpPpIZ-XG3-65">
          <mxGeometry width="40" height="30" as="geometry">
            <mxRectangle width="40" height="30" as="alternateBounds" />
          </mxGeometry>
        </mxCell>
        <mxCell id="D3dmjZLqvdNpPpIZ-XG3-67" value="product_line" style="shape=partialRectangle;html=1;whiteSpace=wrap;connectable=0;fillColor=none;top=0;left=0;bottom=0;right=0;align=left;spacingLeft=6;overflow=hidden;strokeColor=inherit;fontSize=16;" vertex="1" parent="D3dmjZLqvdNpPpIZ-XG3-65">
          <mxGeometry x="40" width="140" height="30" as="geometry">
            <mxRectangle width="140" height="30" as="alternateBounds" />
          </mxGeometry>
        </mxCell>
        <mxCell id="D3dmjZLqvdNpPpIZ-XG3-68" value="" style="shape=tableRow;horizontal=0;startSize=0;swimlaneHead=0;swimlaneBody=0;top=0;left=0;bottom=0;right=0;collapsible=0;dropTarget=0;fillColor=none;points=[[0,0.5],[1,0.5]];portConstraint=eastwest;strokeColor=inherit;fontSize=16;" vertex="1" parent="D3dmjZLqvdNpPpIZ-XG3-37">
          <mxGeometry y="330" width="180" height="30" as="geometry" />
        </mxCell>
        <mxCell id="D3dmjZLqvdNpPpIZ-XG3-69" value="" style="shape=partialRectangle;html=1;whiteSpace=wrap;connectable=0;fillColor=none;top=0;left=0;bottom=0;right=0;overflow=hidden;strokeColor=inherit;fontSize=16;" vertex="1" parent="D3dmjZLqvdNpPpIZ-XG3-68">
          <mxGeometry width="40" height="30" as="geometry">
            <mxRectangle width="40" height="30" as="alternateBounds" />
          </mxGeometry>
        </mxCell>
        <mxCell id="D3dmjZLqvdNpPpIZ-XG3-70" value="start_date" style="shape=partialRectangle;html=1;whiteSpace=wrap;connectable=0;fillColor=none;top=0;left=0;bottom=0;right=0;align=left;spacingLeft=6;overflow=hidden;strokeColor=inherit;fontSize=16;" vertex="1" parent="D3dmjZLqvdNpPpIZ-XG3-68">
          <mxGeometry x="40" width="140" height="30" as="geometry">
            <mxRectangle width="140" height="30" as="alternateBounds" />
          </mxGeometry>
        </mxCell>
        <mxCell id="D3dmjZLqvdNpPpIZ-XG3-71" value="gold.fact_sales" style="shape=table;startSize=30;container=1;collapsible=0;childLayout=tableLayout;fixedRows=1;rowLines=0;fontStyle=0;strokeColor=#9673a6;fontSize=16;fillColor=#e1d5e7;" vertex="1" parent="1">
          <mxGeometry x="335" y="150" width="180" height="300" as="geometry" />
        </mxCell>
        <mxCell id="D3dmjZLqvdNpPpIZ-XG3-72" value="" style="shape=tableRow;horizontal=0;startSize=0;swimlaneHead=0;swimlaneBody=0;top=0;left=0;bottom=0;right=0;collapsible=0;dropTarget=0;fillColor=none;points=[[0,0.5],[1,0.5]];portConstraint=eastwest;strokeColor=inherit;fontSize=16;" vertex="1" parent="D3dmjZLqvdNpPpIZ-XG3-71">
          <mxGeometry y="30" width="180" height="30" as="geometry" />
        </mxCell>
        <mxCell id="D3dmjZLqvdNpPpIZ-XG3-73" value="" style="shape=partialRectangle;html=1;whiteSpace=wrap;connectable=0;fillColor=none;top=0;left=0;bottom=0;right=0;overflow=hidden;pointerEvents=1;strokeColor=inherit;fontSize=16;" vertex="1" parent="D3dmjZLqvdNpPpIZ-XG3-72">
          <mxGeometry width="40" height="30" as="geometry">
            <mxRectangle width="40" height="30" as="alternateBounds" />
          </mxGeometry>
        </mxCell>
        <mxCell id="D3dmjZLqvdNpPpIZ-XG3-74" value="order_number" style="shape=partialRectangle;html=1;whiteSpace=wrap;connectable=0;fillColor=none;top=0;left=0;bottom=0;right=0;align=left;spacingLeft=6;overflow=hidden;strokeColor=inherit;fontSize=16;" vertex="1" parent="D3dmjZLqvdNpPpIZ-XG3-72">
          <mxGeometry x="40" width="140" height="30" as="geometry">
            <mxRectangle width="140" height="30" as="alternateBounds" />
          </mxGeometry>
        </mxCell>
        <mxCell id="D3dmjZLqvdNpPpIZ-XG3-75" value="" style="shape=tableRow;horizontal=0;startSize=0;swimlaneHead=0;swimlaneBody=0;top=0;left=0;bottom=0;right=0;collapsible=0;dropTarget=0;fillColor=none;points=[[0,0.5],[1,0.5]];portConstraint=eastwest;strokeColor=inherit;fontSize=16;" vertex="1" parent="D3dmjZLqvdNpPpIZ-XG3-71">
          <mxGeometry y="60" width="180" height="30" as="geometry" />
        </mxCell>
        <mxCell id="D3dmjZLqvdNpPpIZ-XG3-76" value="FK1" style="shape=partialRectangle;html=1;whiteSpace=wrap;connectable=0;fillColor=none;top=0;left=0;bottom=0;right=0;overflow=hidden;strokeColor=inherit;fontSize=16;" vertex="1" parent="D3dmjZLqvdNpPpIZ-XG3-75">
          <mxGeometry width="40" height="30" as="geometry">
            <mxRectangle width="40" height="30" as="alternateBounds" />
          </mxGeometry>
        </mxCell>
        <mxCell id="D3dmjZLqvdNpPpIZ-XG3-77" value="product_key" style="shape=partialRectangle;html=1;whiteSpace=wrap;connectable=0;fillColor=none;top=0;left=0;bottom=0;right=0;align=left;spacingLeft=6;overflow=hidden;strokeColor=inherit;fontSize=16;" vertex="1" parent="D3dmjZLqvdNpPpIZ-XG3-75">
          <mxGeometry x="40" width="140" height="30" as="geometry">
            <mxRectangle width="140" height="30" as="alternateBounds" />
          </mxGeometry>
        </mxCell>
        <mxCell id="D3dmjZLqvdNpPpIZ-XG3-78" value="" style="shape=tableRow;horizontal=0;startSize=0;swimlaneHead=0;swimlaneBody=0;top=0;left=0;bottom=0;right=0;collapsible=0;dropTarget=0;fillColor=none;points=[[0,0.5],[1,0.5]];portConstraint=eastwest;strokeColor=inherit;fontSize=16;" vertex="1" parent="D3dmjZLqvdNpPpIZ-XG3-71">
          <mxGeometry y="90" width="180" height="30" as="geometry" />
        </mxCell>
        <mxCell id="D3dmjZLqvdNpPpIZ-XG3-79" value="FK2" style="shape=partialRectangle;html=1;whiteSpace=wrap;connectable=0;fillColor=none;top=0;left=0;bottom=0;right=0;overflow=hidden;strokeColor=inherit;fontSize=16;" vertex="1" parent="D3dmjZLqvdNpPpIZ-XG3-78">
          <mxGeometry width="40" height="30" as="geometry">
            <mxRectangle width="40" height="30" as="alternateBounds" />
          </mxGeometry>
        </mxCell>
        <mxCell id="D3dmjZLqvdNpPpIZ-XG3-80" value="customer_key" style="shape=partialRectangle;html=1;whiteSpace=wrap;connectable=0;fillColor=none;top=0;left=0;bottom=0;right=0;align=left;spacingLeft=6;overflow=hidden;strokeColor=inherit;fontSize=16;" vertex="1" parent="D3dmjZLqvdNpPpIZ-XG3-78">
          <mxGeometry x="40" width="140" height="30" as="geometry">
            <mxRectangle width="140" height="30" as="alternateBounds" />
          </mxGeometry>
        </mxCell>
        <mxCell id="D3dmjZLqvdNpPpIZ-XG3-81" value="" style="shape=tableRow;horizontal=0;startSize=0;swimlaneHead=0;swimlaneBody=0;top=0;left=0;bottom=0;right=0;collapsible=0;dropTarget=0;fillColor=none;points=[[0,0.5],[1,0.5]];portConstraint=eastwest;strokeColor=inherit;fontSize=16;" vertex="1" parent="D3dmjZLqvdNpPpIZ-XG3-71">
          <mxGeometry y="120" width="180" height="30" as="geometry" />
        </mxCell>
        <mxCell id="D3dmjZLqvdNpPpIZ-XG3-82" value="" style="shape=partialRectangle;html=1;whiteSpace=wrap;connectable=0;fillColor=none;top=0;left=0;bottom=0;right=0;overflow=hidden;strokeColor=inherit;fontSize=16;" vertex="1" parent="D3dmjZLqvdNpPpIZ-XG3-81">
          <mxGeometry width="40" height="30" as="geometry">
            <mxRectangle width="40" height="30" as="alternateBounds" />
          </mxGeometry>
        </mxCell>
        <mxCell id="D3dmjZLqvdNpPpIZ-XG3-83" value="order_date" style="shape=partialRectangle;html=1;whiteSpace=wrap;connectable=0;fillColor=none;top=0;left=0;bottom=0;right=0;align=left;spacingLeft=6;overflow=hidden;strokeColor=inherit;fontSize=16;" vertex="1" parent="D3dmjZLqvdNpPpIZ-XG3-81">
          <mxGeometry x="40" width="140" height="30" as="geometry">
            <mxRectangle width="140" height="30" as="alternateBounds" />
          </mxGeometry>
        </mxCell>
        <mxCell id="D3dmjZLqvdNpPpIZ-XG3-84" value="" style="shape=tableRow;horizontal=0;startSize=0;swimlaneHead=0;swimlaneBody=0;top=0;left=0;bottom=0;right=0;collapsible=0;dropTarget=0;fillColor=none;points=[[0,0.5],[1,0.5]];portConstraint=eastwest;strokeColor=inherit;fontSize=16;" vertex="1" parent="D3dmjZLqvdNpPpIZ-XG3-71">
          <mxGeometry y="150" width="180" height="30" as="geometry" />
        </mxCell>
        <mxCell id="D3dmjZLqvdNpPpIZ-XG3-85" value="" style="shape=partialRectangle;html=1;whiteSpace=wrap;connectable=0;fillColor=none;top=0;left=0;bottom=0;right=0;overflow=hidden;strokeColor=inherit;fontSize=16;" vertex="1" parent="D3dmjZLqvdNpPpIZ-XG3-84">
          <mxGeometry width="40" height="30" as="geometry">
            <mxRectangle width="40" height="30" as="alternateBounds" />
          </mxGeometry>
        </mxCell>
        <mxCell id="D3dmjZLqvdNpPpIZ-XG3-86" value="ship_date" style="shape=partialRectangle;html=1;whiteSpace=wrap;connectable=0;fillColor=none;top=0;left=0;bottom=0;right=0;align=left;spacingLeft=6;overflow=hidden;strokeColor=inherit;fontSize=16;" vertex="1" parent="D3dmjZLqvdNpPpIZ-XG3-84">
          <mxGeometry x="40" width="140" height="30" as="geometry">
            <mxRectangle width="140" height="30" as="alternateBounds" />
          </mxGeometry>
        </mxCell>
        <mxCell id="D3dmjZLqvdNpPpIZ-XG3-87" value="" style="shape=tableRow;horizontal=0;startSize=0;swimlaneHead=0;swimlaneBody=0;top=0;left=0;bottom=0;right=0;collapsible=0;dropTarget=0;fillColor=none;points=[[0,0.5],[1,0.5]];portConstraint=eastwest;strokeColor=inherit;fontSize=16;" vertex="1" parent="D3dmjZLqvdNpPpIZ-XG3-71">
          <mxGeometry y="180" width="180" height="30" as="geometry" />
        </mxCell>
        <mxCell id="D3dmjZLqvdNpPpIZ-XG3-88" value="" style="shape=partialRectangle;html=1;whiteSpace=wrap;connectable=0;fillColor=none;top=0;left=0;bottom=0;right=0;overflow=hidden;strokeColor=inherit;fontSize=16;" vertex="1" parent="D3dmjZLqvdNpPpIZ-XG3-87">
          <mxGeometry width="40" height="30" as="geometry">
            <mxRectangle width="40" height="30" as="alternateBounds" />
          </mxGeometry>
        </mxCell>
        <mxCell id="D3dmjZLqvdNpPpIZ-XG3-89" value="due_date" style="shape=partialRectangle;html=1;whiteSpace=wrap;connectable=0;fillColor=none;top=0;left=0;bottom=0;right=0;align=left;spacingLeft=6;overflow=hidden;strokeColor=inherit;fontSize=16;" vertex="1" parent="D3dmjZLqvdNpPpIZ-XG3-87">
          <mxGeometry x="40" width="140" height="30" as="geometry">
            <mxRectangle width="140" height="30" as="alternateBounds" />
          </mxGeometry>
        </mxCell>
        <mxCell id="D3dmjZLqvdNpPpIZ-XG3-90" value="" style="shape=tableRow;horizontal=0;startSize=0;swimlaneHead=0;swimlaneBody=0;top=0;left=0;bottom=0;right=0;collapsible=0;dropTarget=0;fillColor=none;points=[[0,0.5],[1,0.5]];portConstraint=eastwest;strokeColor=inherit;fontSize=16;" vertex="1" parent="D3dmjZLqvdNpPpIZ-XG3-71">
          <mxGeometry y="210" width="180" height="30" as="geometry" />
        </mxCell>
        <mxCell id="D3dmjZLqvdNpPpIZ-XG3-91" value="" style="shape=partialRectangle;html=1;whiteSpace=wrap;connectable=0;fillColor=none;top=0;left=0;bottom=0;right=0;overflow=hidden;strokeColor=inherit;fontSize=16;" vertex="1" parent="D3dmjZLqvdNpPpIZ-XG3-90">
          <mxGeometry width="40" height="30" as="geometry">
            <mxRectangle width="40" height="30" as="alternateBounds" />
          </mxGeometry>
        </mxCell>
        <mxCell id="D3dmjZLqvdNpPpIZ-XG3-92" value="sales" style="shape=partialRectangle;html=1;whiteSpace=wrap;connectable=0;fillColor=none;top=0;left=0;bottom=0;right=0;align=left;spacingLeft=6;overflow=hidden;strokeColor=inherit;fontSize=16;" vertex="1" parent="D3dmjZLqvdNpPpIZ-XG3-90">
          <mxGeometry x="40" width="140" height="30" as="geometry">
            <mxRectangle width="140" height="30" as="alternateBounds" />
          </mxGeometry>
        </mxCell>
        <mxCell id="D3dmjZLqvdNpPpIZ-XG3-93" value="" style="shape=tableRow;horizontal=0;startSize=0;swimlaneHead=0;swimlaneBody=0;top=0;left=0;bottom=0;right=0;collapsible=0;dropTarget=0;fillColor=none;points=[[0,0.5],[1,0.5]];portConstraint=eastwest;strokeColor=inherit;fontSize=16;" vertex="1" parent="D3dmjZLqvdNpPpIZ-XG3-71">
          <mxGeometry y="240" width="180" height="30" as="geometry" />
        </mxCell>
        <mxCell id="D3dmjZLqvdNpPpIZ-XG3-94" value="" style="shape=partialRectangle;html=1;whiteSpace=wrap;connectable=0;fillColor=none;top=0;left=0;bottom=0;right=0;overflow=hidden;strokeColor=inherit;fontSize=16;" vertex="1" parent="D3dmjZLqvdNpPpIZ-XG3-93">
          <mxGeometry width="40" height="30" as="geometry">
            <mxRectangle width="40" height="30" as="alternateBounds" />
          </mxGeometry>
        </mxCell>
        <mxCell id="D3dmjZLqvdNpPpIZ-XG3-95" value="quantity" style="shape=partialRectangle;html=1;whiteSpace=wrap;connectable=0;fillColor=none;top=0;left=0;bottom=0;right=0;align=left;spacingLeft=6;overflow=hidden;strokeColor=inherit;fontSize=16;" vertex="1" parent="D3dmjZLqvdNpPpIZ-XG3-93">
          <mxGeometry x="40" width="140" height="30" as="geometry">
            <mxRectangle width="140" height="30" as="alternateBounds" />
          </mxGeometry>
        </mxCell>
        <mxCell id="D3dmjZLqvdNpPpIZ-XG3-96" value="" style="shape=tableRow;horizontal=0;startSize=0;swimlaneHead=0;swimlaneBody=0;top=0;left=0;bottom=0;right=0;collapsible=0;dropTarget=0;fillColor=none;points=[[0,0.5],[1,0.5]];portConstraint=eastwest;strokeColor=inherit;fontSize=16;" vertex="1" parent="D3dmjZLqvdNpPpIZ-XG3-71">
          <mxGeometry y="270" width="180" height="30" as="geometry" />
        </mxCell>
        <mxCell id="D3dmjZLqvdNpPpIZ-XG3-97" value="" style="shape=partialRectangle;html=1;whiteSpace=wrap;connectable=0;fillColor=none;top=0;left=0;bottom=0;right=0;overflow=hidden;strokeColor=inherit;fontSize=16;" vertex="1" parent="D3dmjZLqvdNpPpIZ-XG3-96">
          <mxGeometry width="40" height="30" as="geometry">
            <mxRectangle width="40" height="30" as="alternateBounds" />
          </mxGeometry>
        </mxCell>
        <mxCell id="D3dmjZLqvdNpPpIZ-XG3-98" value="price" style="shape=partialRectangle;html=1;whiteSpace=wrap;connectable=0;fillColor=none;top=0;left=0;bottom=0;right=0;align=left;spacingLeft=6;overflow=hidden;strokeColor=inherit;fontSize=16;" vertex="1" parent="D3dmjZLqvdNpPpIZ-XG3-96">
          <mxGeometry x="40" width="140" height="30" as="geometry">
            <mxRectangle width="140" height="30" as="alternateBounds" />
          </mxGeometry>
        </mxCell>
        <mxCell id="D3dmjZLqvdNpPpIZ-XG3-100" value="" style="edgeStyle=entityRelationEdgeStyle;fontSize=12;html=1;endArrow=ERzeroToMany;startArrow=ERmandOne;rounded=0;exitX=1.013;exitY=0.767;exitDx=0;exitDy=0;exitPerimeter=0;" edge="1" parent="1" source="D3dmjZLqvdNpPpIZ-XG3-38">
          <mxGeometry width="100" height="100" relative="1" as="geometry">
            <mxPoint x="240" y="230" as="sourcePoint" />
            <mxPoint x="330" y="230" as="targetPoint" />
            <Array as="points">
              <mxPoint x="260" y="225" />
              <mxPoint x="250" y="235" />
              <mxPoint x="320" y="265" />
            </Array>
          </mxGeometry>
        </mxCell>
        <mxCell id="D3dmjZLqvdNpPpIZ-XG3-101" value="" style="edgeStyle=entityRelationEdgeStyle;fontSize=12;html=1;endArrow=ERzeroToMany;startArrow=ERmandOne;rounded=0;entryX=1;entryY=0.5;entryDx=0;entryDy=0;exitX=0;exitY=0.5;exitDx=0;exitDy=0;" edge="1" parent="1" source="D3dmjZLqvdNpPpIZ-XG3-4" target="D3dmjZLqvdNpPpIZ-XG3-78">
          <mxGeometry width="100" height="100" relative="1" as="geometry">
            <mxPoint x="460" y="410" as="sourcePoint" />
            <mxPoint x="560" y="310" as="targetPoint" />
            <Array as="points">
              <mxPoint x="580" y="240" />
            </Array>
          </mxGeometry>
        </mxCell>
        <mxCell id="D3dmjZLqvdNpPpIZ-XG3-104" style="edgeStyle=orthogonalEdgeStyle;rounded=0;orthogonalLoop=1;jettySize=auto;html=1;exitX=1;exitY=0.5;exitDx=0;exitDy=0;" edge="1" parent="1" source="D3dmjZLqvdNpPpIZ-XG3-90">
          <mxGeometry relative="1" as="geometry">
            <mxPoint x="500" y="560" as="targetPoint" />
          </mxGeometry>
        </mxCell>
        <mxCell id="D3dmjZLqvdNpPpIZ-XG3-105" value="&lt;span style=&quot;font-size: 14px;&quot;&gt;&lt;b&gt;sales =quantity * price&lt;/b&gt;&lt;/span&gt;" style="text;strokeColor=none;fillColor=none;align=left;verticalAlign=middle;spacingLeft=4;spacingRight=4;overflow=hidden;points=[[0,0.5],[1,0.5]];portConstraint=eastwest;rotatable=0;whiteSpace=wrap;html=1;" vertex="1" parent="1">
          <mxGeometry x="450" y="560" width="180" height="30" as="geometry" />
        </mxCell>
      </root>
    </mxGraphModel>
  </diagram>
</mxfile>
